<?xml version="1.0" encoding="UTF-8"?>
<svg xmlns="http://www.w3.org/2000/svg" viewBox="0 0 722.38 647.88">
  <defs>
    <style>
      .cls-1 {
        fill: #e7ceb4;
      }

      .cls-2 {
        fill: #e9f7ff;
      }

      .cls-3 {
        fill: #a4ceea;
      }

      .cls-4, .cls-5 {
        fill: #fff;
      }

      .cls-6 {
        fill: #2f3336;
      }

      .cls-7 {
        fill: #e7b7a8;
      }

      .cls-8 {
        fill: #dc5b4f;
      }

      .cls-9 {
        fill: #73a8b6;
      }

      .cls-10 {
        fill: #de938c;
      }

      .cls-11 {
        fill: #3c7fa5;
      }

      .cls-12 {
        fill: #488094;
      }

      .cls-13 {
        fill: #fa8;
      }

      .cls-14 {
        fill: #ffc9a7;
      }

      .cls-15 {
        fill: #ffa088;
      }

      .cls-16 {
        fill: #ffb093;
      }

      .cls-5 {
        stroke: #272525;
        stroke-miterlimit: 10;
      }

      .cls-17 {
        fill: #1b2416;
      }

      .cls-18 {
        fill: #6caedc;
      }

      .cls-19 {
        fill: #ede5ed;
      }

      .cls-20 {
        fill: #ff8c70;
      }

      .cls-21 {
        fill: #f5e5d6;
      }
    </style>
  </defs>
  <g id="BACKGROUND">
    <path class="cls-2" d="M722.38,86.29V0H196.55s-.08.04-.12.05C15.21,84.66-12.32,206.43,41.18,281.67c84.52,118.86,203.72,279,136.08,293.56-67.64,14.55,606.75-14.89,487.3-189.3-100.79-147.17-4.02-272.92,57.82-299.65Z"/>
  </g>
  <g id="OBJECTS">
    <path class="cls-19" d="M78.76,508.91c-14.57.85-35.91,8.74-29.57,26.78,5.85,16.63,24.76,27.69,39.42,35.1,45.51,23,105.99,21.4,155.88,18.98,46.18-2.24,92.39.22,138.38-3.71,34.46-2.95,69.25-8.76,103.63-9.09,36.25-.35,72.08-3.86,108.11-6.34,13.65-.94,54.71-5.47,34.84-28.05-17.61-20.01-66.98-15.89-90.22-16.05-38.08-.27-76.21-3.04-114.25-4.51-31.21-1.2-62.46.85-93.66.84-60.16-.03-119.45-8.32-179.45-9.19-22.84-.33-46.32-3.23-69.08-2.24,0-.85,0-1.71,0-2.56-1.26-.05-2.62-.03-4.04.05Z"/>
    <g>
      <path class="cls-12" d="M686.34,445.78c-17.66,5.45-34.37,14.05-49.19,25.08-14.75,10.97-28.09,24.47-38.33,39.77-2.9,4.33-5.6,8.79-8.09,13.37-2.05,3.78-3.96,7.53-5.25,11.57-.99.47-1.82,1.3-2.22,2.49-.8,2.37.8,5.85,3.82,5.17,18.54-4.15,36.08-12.09,51.54-23.12,15.29-10.91,28.54-24.82,38.51-40.75,5.67-9.07,10.37-18.67,13.8-28.81,1.03-3.03-1.5-5.72-4.59-4.77Z"/>
      <path class="cls-9" d="M669.61,479.51c-2.89-.31-5.8-.57-8.69-.76-.54-.04-1.08-.06-1.62-.09,3.07-2.9,6.14-5.8,9.2-8.71,4.13-3.94,8.27-7.89,12.33-11.91,2.03-2.01,4.06-4.03,6.09-6.05.96-.96,1.89-1.94,2.8-2.95.42-.46.76-.94,1.08-1.44-.46-.98-1.34-1.69-2.44-1.92-1.27.81-2.41,1.8-3.56,2.86-1.84,1.7-3.68,3.4-5.52,5.09-2.42,2.23-4.82,4.47-7.22,6.72.72-2.33,1.43-4.67,2.14-7,.37-1.22.75-2.45,1.09-3.69-1.54.6-3.07,1.23-4.59,1.88-.07.24-.13.49-.2.73-.64,2.37-1.28,4.74-1.92,7.11-.32,1.18-.58,2.38-.81,3.58-.1.51-.12,1-.11,1.48-7.17,6.72-14.36,13.43-21.57,20.1-2.11,1.95-4.23,3.9-6.35,5.85.28-.99.55-1.97.81-2.97.88-3.33,1.76-6.66,2.64-9.99.86-3.26,1.7-6.52,2.51-9.79.26-1.05.47-2.1.65-3.16-1.69,1.09-3.37,2.22-5.02,3.37-.78,2.91-1.55,5.81-2.3,8.73l-2.49,9.79c-.65,2.53-1.79,5.58-1.47,8.3-11.13,10.22-22.32,20.37-33.58,30.45.31-1.25.6-2.5.88-3.76.76-3.44,1.53-6.88,2.29-10.32.76-3.44,1.53-6.88,2.29-10.32.11-.48.2-.97.3-1.46-1.86,2.28-3.65,4.61-5.37,6.98-.27,1.27-.55,2.54-.82,3.81l-2.24,10.33c-.36,1.65-.7,3.3-1.01,4.96-.17.92-.49,2.27-.38,3.4-3.02,2.69-6.04,5.38-9.06,8.06-1.64,1.45-3.29,2.9-4.93,4.35.59,1.41,1.87,2.46,3.65,2.07.61-.14,1.21-.29,1.81-.43.41-.36.82-.72,1.23-1.08,3.81-3.37,7.62-6.75,11.42-10.14,5.11-4.56,10.19-9.14,15.27-13.73.33.17.68.31,1.13.42.91.22,1.85.28,2.78.35,1.77.14,3.54.2,5.32.19,3.64-.04,7.27-.28,10.9-.51,1.51-.1,3.02-.19,4.53-.27,1.84-1.38,3.65-2.81,5.42-4.28-3.28.04-6.55.28-9.82.54-3.56.28-7.12.57-10.69.68-1.74.05-3.48.09-5.21.08-.41,0-.83-.02-1.24-.04,1.33-1.2,2.66-2.4,3.98-3.6,10.76-9.8,21.47-19.67,32.09-29.64.09.02.18.05.28.07,1.64.31,3.28.64,4.93.89,3.3.49,6.61.98,9.92,1.39.88.11,1.76.22,2.65.34.95-1.38,1.88-2.78,2.78-4.2-2.31-.25-4.62-.5-6.93-.75Z"/>
    </g>
    <g>
      <path class="cls-9" d="M632.38,408.04c-10.36,10.7-18.83,23.25-25.02,36.78-6.16,13.47-10.36,28.17-11.65,42.95-.37,4.18-.55,8.38-.53,12.58.02,3.47.12,6.85.78,10.21-.52.71-.78,1.62-.6,2.62.36,1.98,2.83,3.82,4.7,2.17,11.48-10.12,20.8-22.53,27.44-36.31,6.57-13.64,10.54-28.59,11.4-43.71.49-8.6.08-17.21-1.42-25.7-.45-2.54-3.28-3.46-5.09-1.59Z"/>
      <path class="cls-12" d="M633.64,438.35c-2.16.9-4.31,1.85-6.44,2.83-.39.18-.78.37-1.18.56,1.05-3.24,2.09-6.48,3.12-9.72,1.39-4.39,2.78-8.78,4.09-13.19.65-2.21,1.31-4.42,1.96-6.64.31-1.05.58-2.1.83-3.17.11-.49.17-.96.2-1.44-.71-.51-1.61-.67-2.47-.41-.58,1.06-1,2.2-1.4,3.4-.64,1.91-1.28,3.83-1.93,5.74-.85,2.51-1.67,5.03-2.5,7.54-.39-1.93-.8-3.85-1.2-5.78-.21-1.01-.42-2.02-.66-3.03-.85,1.02-1.69,2.06-2.52,3.11.05.2.09.4.14.59.47,1.92.93,3.85,1.4,5.77.23.96.51,1.91.81,2.84.13.4.3.75.5,1.09-2.46,7.53-4.93,15.05-7.44,22.56-.74,2.2-1.48,4.4-2.22,6.59-.18-.81-.38-1.61-.57-2.41-.67-2.69-1.34-5.38-2.01-8.08-.65-2.63-1.33-5.26-2.02-7.88-.22-.84-.48-1.66-.76-2.48-.77,1.43-1.52,2.87-2.24,4.32.57,2.36,1.16,4.71,1.76,7.06l2.04,7.88c.53,2.04.9,4.63,2.18,6.44-3.9,11.53-7.86,23.04-11.91,34.52-.27-1-.54-2-.83-3-.8-2.73-1.59-5.45-2.39-8.18-.8-2.73-1.59-5.45-2.39-8.18-.11-.38-.23-.76-.36-1.14-.43,2.33-.79,4.67-1.08,7.01.3,1,.6,2,.9,3.01l2.42,8.16c.39,1.3.78,2.6,1.21,3.89.24.72.53,1.79,1.05,2.55-1.09,3.07-2.18,6.14-3.28,9.21-.6,1.66-1.2,3.33-1.8,4.99.96.77,2.28,1.02,3.38.04.38-.33.74-.67,1.11-1,.15-.41.3-.83.45-1.24,1.39-3.86,2.76-7.72,4.13-11.59,1.84-5.2,3.66-10.41,5.46-15.62.3,0,.6-.04.96-.14.73-.2,1.41-.52,2.1-.83,1.31-.59,2.58-1.23,3.83-1.93,2.56-1.44,5.03-3.02,7.5-4.59,1.03-.65,2.06-1.3,3.09-1.95.76-1.69,1.49-3.4,2.17-5.12-2.3,1.3-4.52,2.74-6.73,4.19-2.41,1.58-4.81,3.16-7.28,4.62-1.21.71-2.42,1.42-3.65,2.08-.29.16-.59.3-.89.45.47-1.36.95-2.72,1.41-4.09,3.8-11.1,7.54-22.22,11.17-33.37.07-.02.15-.03.22-.06,1.28-.42,2.57-.82,3.83-1.28,2.52-.93,5.04-1.87,7.55-2.87.67-.26,1.33-.53,2-.79.14-1.35.25-2.69.34-4.04-1.73.72-3.46,1.44-5.19,2.16Z"/>
    </g>
    <g>
      <path class="cls-12" d="M601.07,354.38c-12.75,4.47-24.72,11.21-35.25,19.67-10.47,8.42-19.85,18.65-26.91,30.11-2,3.24-3.85,6.58-5.54,9.99-1.4,2.82-2.69,5.61-3.52,8.6-.71.37-1.3,1-1.56,1.88-.52,1.76.74,4.25,2.93,3.67,13.43-3.54,26.03-9.82,37.02-18.31,10.87-8.39,20.17-18.91,27.01-30.83,3.89-6.78,7.06-13.93,9.29-21.43.67-2.24-1.26-4.14-3.48-3.36Z"/>
      <path class="cls-9" d="M589.77,379.48c-2.12-.15-4.25-.25-6.37-.32-.39-.01-.79-.02-1.18-.02,2.17-2.2,4.33-4.4,6.48-6.62,2.91-2.99,5.82-5.99,8.68-9.04,1.43-1.53,2.86-3.06,4.28-4.59.68-.73,1.33-1.47,1.97-2.23.29-.35.53-.71.75-1.08-.36-.7-1.03-1.2-1.84-1.34-.9.63-1.71,1.38-2.52,2.19-1.3,1.29-2.6,2.58-3.9,3.87-1.71,1.69-3.4,3.4-5.09,5.11.47-1.72.91-3.45,1.37-5.17.24-.9.48-1.81.7-2.72-1.11.48-2.21.98-3.3,1.5-.04.18-.08.36-.13.54-.4,1.75-.81,3.5-1.21,5.25-.2.87-.36,1.75-.49,2.64-.06.38-.06.73-.04,1.08-5.06,5.11-10.12,10.21-15.21,15.28-1.49,1.48-2.99,2.97-4.48,4.45.18-.73.35-1.46.51-2.19.55-2.46,1.1-4.91,1.65-7.37.54-2.4,1.06-4.81,1.56-7.22.16-.77.28-1.55.39-2.33-1.21.84-2.4,1.71-3.57,2.6-.49,2.14-.98,4.29-1.44,6.44l-1.55,7.22c-.4,1.87-1.15,4.12-.85,6.11-7.85,7.77-15.74,15.5-23.7,23.16.19-.92.37-1.85.54-2.77.46-2.53.93-5.07,1.39-7.6.46-2.53.93-5.07,1.39-7.6.07-.36.12-.71.18-1.07-1.3,1.71-2.54,3.47-3.73,5.25-.17.93-.33,1.87-.5,2.8l-1.36,7.61c-.22,1.22-.42,2.43-.6,3.65-.1.68-.3,1.67-.18,2.5-2.13,2.05-4.26,4.1-6.4,6.14-1.16,1.11-2.32,2.21-3.49,3.32.47,1.02,1.43,1.75,2.73,1.41.44-.12.87-.24,1.31-.36.29-.28.58-.55.87-.83,2.69-2.57,5.38-5.14,8.07-7.72,3.61-3.47,7.2-6.95,10.78-10.45.24.12.5.21.84.28.67.14,1.36.15,2.04.18,1.3.06,2.59.05,3.89,0,2.66-.13,5.31-.4,7.95-.67,1.1-.11,2.2-.22,3.3-.32,1.31-1.06,2.59-2.15,3.84-3.27-2.39.12-4.78.39-7.16.66-2.59.3-5.18.61-7.79.79-1.27.09-2.54.16-3.81.21-.3,0-.6,0-.91,0,.94-.92,1.87-1.83,2.81-2.74,7.6-7.46,15.15-14.96,22.63-22.53.07.01.13.03.2.04,1.21.18,2.41.38,3.63.51,2.43.27,4.85.53,7.29.74.65.06,1.29.11,1.94.17.66-1.04,1.3-2.08,1.92-3.14-1.7-.12-3.39-.24-5.09-.36Z"/>
    </g>
    <g>
      <path class="cls-12" d="M497.85,259.31c-5.57,7.58-9.8,16.16-12.52,25.16-2.71,8.96-4.07,18.52-3.62,27.88.13,2.65.37,5.29.75,7.92.31,2.17.66,4.28,1.36,6.32-.26.49-.35,1.08-.15,1.69.39,1.21,2.1,2.15,3.13.96,6.32-7.31,11.09-15.88,14.07-25.07,2.95-9.1,4.15-18.8,3.4-28.33-.43-5.43-1.42-10.78-3.09-15.96-.5-1.55-2.35-1.88-3.32-.56Z"/>
      <path class="cls-9" d="M501.23,278.17c-1.28.75-2.54,1.53-3.79,2.32-.23.15-.46.3-.69.45.38-2.12.76-4.23,1.12-6.35.5-2.87.99-5.73,1.43-8.6.22-1.44.44-2.88.66-4.32.1-.68.19-1.37.25-2.06.03-.32.03-.62,0-.92-.49-.26-1.06-.28-1.58-.05-.27.71-.44,1.46-.59,2.25-.24,1.25-.48,2.5-.72,3.76-.32,1.64-.62,3.29-.92,4.94-.41-1.17-.83-2.34-1.25-3.51-.22-.61-.44-1.23-.67-1.84-.45.71-.88,1.43-1.31,2.16.05.12.09.24.14.36l1.37,3.49c.23.58.48,1.15.75,1.71.11.24.25.44.41.64-.9,4.92-1.8,9.84-2.73,14.76-.27,1.44-.55,2.88-.82,4.32-.18-.49-.37-.97-.57-1.46-.65-1.63-1.3-3.26-1.95-4.88-.63-1.59-1.28-3.18-1.94-4.76-.21-.51-.45-1-.69-1.49-.36.96-.7,1.93-1.03,2.9.56,1.43,1.13,2.85,1.71,4.27l1.95,4.76c.5,1.23.96,2.82,1.92,3.84-1.46,7.55-2.95,15.09-4.5,22.62-.25-.61-.51-1.21-.78-1.81-.73-1.64-1.46-3.28-2.19-4.91-.73-1.64-1.46-3.28-2.19-4.91-.1-.23-.21-.46-.32-.68-.07,1.5-.1,2.99-.08,4.48.27.6.55,1.2.82,1.81l2.21,4.9c.35.78.71,1.56,1.09,2.33.21.43.48,1.08.88,1.51-.42,2.02-.84,4.03-1.26,6.04-.23,1.09-.46,2.18-.7,3.28.67.4,1.51.44,2.12-.26.21-.24.41-.48.61-.72.06-.27.12-.54.17-.82.54-2.53,1.07-5.07,1.6-7.61.71-3.41,1.4-6.83,2.08-10.24.19-.03.37-.08.59-.17.44-.19.84-.45,1.24-.7.77-.48,1.51-.99,2.23-1.54,1.48-1.12,2.89-2.32,4.3-3.51.59-.5,1.18-.99,1.77-1.48.33-1.12.64-2.25.92-3.39-1.33,1.01-2.59,2.1-3.85,3.2-1.37,1.19-2.74,2.39-4.16,3.52-.69.55-1.39,1.09-2.11,1.61-.17.12-.34.24-.52.36.18-.89.36-1.79.53-2.68,1.43-7.27,2.82-14.55,4.14-21.84.04-.02.09-.03.13-.05.76-.37,1.54-.73,2.29-1.13,1.5-.8,3-1.6,4.48-2.44.39-.22.79-.44,1.18-.66-.03-.85-.07-1.71-.14-2.56-1.02.6-2.04,1.2-3.06,1.79Z"/>
    </g>
    <g>
      <path class="cls-9" d="M539.18,267.46c-8.3,4.42-15.82,10.33-22.17,17.27-6.31,6.9-11.69,14.93-15.33,23.56-1.03,2.44-1.95,4.93-2.75,7.46-.66,2.09-1.25,4.14-1.51,6.29-.45.33-.79.82-.87,1.46-.17,1.26.96,2.85,2.41,2.22,8.86-3.86,16.87-9.51,23.53-16.52,6.59-6.93,11.88-15.15,15.32-24.07,1.96-5.08,3.38-10.33,4.13-15.73.22-1.61-1.3-2.72-2.75-1.94Z"/>
      <path class="cls-12" d="M534.07,285.92c-1.47.12-2.95.28-4.42.46-.27.03-.54.07-.82.11,1.26-1.74,2.51-3.49,3.76-5.24,1.69-2.37,3.37-4.74,5.01-7.14.82-1.2,1.64-2.41,2.46-3.61.39-.57.76-1.15,1.12-1.74.16-.27.29-.55.4-.82-.33-.44-.83-.72-1.41-.73-.56.53-1.03,1.13-1.5,1.77-.76,1.03-1.51,2.05-2.27,3.08-1,1.35-1.98,2.7-2.96,4.05.14-1.23.26-2.47.4-3.71.07-.65.14-1.3.19-1.95-.71.45-1.42.91-2.11,1.38,0,.13-.02.26-.03.38-.09,1.25-.18,2.49-.28,3.74-.05.62-.06,1.25-.06,1.87,0,.26.04.51.09.75-2.94,4.05-5.88,8.09-8.85,12.12-.87,1.18-1.74,2.36-2.61,3.53.05-.52.09-1.04.12-1.56.12-1.75.24-3.5.36-5.25.12-1.71.22-3.42.31-5.13.03-.55.03-1.09.02-1.64-.74.71-1.47,1.43-2.18,2.17-.11,1.53-.22,3.06-.31,4.58l-.3,5.13c-.08,1.33-.36,2.96.06,4.29-4.58,6.18-9.19,12.33-13.85,18.45.03-.65.06-1.31.08-1.96.05-1.79.1-3.59.15-5.38.05-1.79.1-3.59.15-5.38,0-.25,0-.5,0-.76-.71,1.32-1.38,2.65-2.01,4.01-.01.66-.03,1.32-.04,1.98l-.13,5.38c-.02.86-.03,1.72-.03,2.58,0,.48-.03,1.18.14,1.74-1.25,1.64-2.5,3.27-3.75,4.9-.68.88-1.36,1.77-2.05,2.65.43.65,1.17,1.05,2.02.68.29-.13.58-.26.86-.39.17-.22.34-.44.51-.66,1.58-2.05,3.16-4.11,4.73-6.17,2.11-2.77,4.21-5.55,6.31-8.33.18.05.37.09.61.1.48.02.95-.04,1.42-.09.9-.1,1.79-.24,2.68-.42,1.82-.37,3.61-.84,5.4-1.31.74-.19,1.49-.39,2.24-.57.79-.87,1.55-1.75,2.3-2.66-1.63.34-3.25.77-4.86,1.21-1.75.48-3.5.97-5.27,1.37-.86.19-1.73.38-2.6.54-.21.04-.41.07-.62.1.55-.73,1.1-1.45,1.64-2.18,4.44-5.94,8.84-11.9,13.18-17.9.05,0,.1,0,.14,0,.85,0,1.7,0,2.55-.03,1.7-.07,3.4-.15,5.09-.26.45-.03.9-.06,1.35-.09.34-.78.67-1.57.99-2.37-1.18.1-2.36.19-3.54.29Z"/>
    </g>
    <g>
      <path class="cls-12" d="M4.99,414.85c16.66,6.81,32.13,16.59,45.56,28.57,13.36,11.92,25.14,26.16,33.75,41.89,2.44,4.45,4.68,9.01,6.69,13.67,1.66,3.85,3.19,7.64,4.09,11.68.92.54,1.66,1.42,1.94,2.61.57,2.37-1.28,5.6-4.15,4.69-17.62-5.62-33.96-14.84-48.01-26.88-13.89-11.91-25.55-26.54-33.84-42.86-4.72-9.29-8.44-19.01-10.91-29.14-.74-3.03,1.95-5.42,4.86-4.23Z"/>
      <path class="cls-9" d="M18.3,449.01c2.83-.05,5.67-.05,8.5.01.52.01,1.05.03,1.58.05-2.73-3.08-5.46-6.15-8.17-9.25-3.67-4.18-7.34-8.36-10.93-12.62-1.8-2.13-3.59-4.26-5.39-6.4-.85-1.02-1.67-2.04-2.46-3.1-.36-.49-.66-.98-.92-1.49.53-.91,1.45-1.53,2.53-1.66,1.16.89,2.18,1.95,3.2,3.09,1.64,1.81,3.28,3.61,4.92,5.42,2.16,2.37,4.29,4.76,6.43,7.14-.5-2.32-.98-4.65-1.47-6.98-.26-1.22-.51-2.44-.74-3.67,1.44.72,2.87,1.46,4.29,2.22.04.24.09.48.13.72.42,2.36.83,4.71,1.25,7.07.21,1.17.36,2.36.48,3.54.05.5.03.98-.02,1.45,6.38,7.14,12.77,14.27,19.2,21.36,1.88,2.08,3.77,4.15,5.66,6.22-.19-.98-.37-1.96-.53-2.95-.57-3.31-1.13-6.61-1.7-9.92-.55-3.23-1.09-6.47-1.59-9.71-.16-1.04-.27-2.08-.36-3.12,1.55,1.21,3.07,2.44,4.58,3.7.51,2.89,1.01,5.77,1.47,8.67l1.57,9.71c.41,2.51,1.25,5.57.71,8.18,9.92,10.87,19.89,21.69,29.95,32.43-.19-1.24-.37-2.48-.53-3.72-.44-3.4-.89-6.81-1.33-10.21-.44-3.4-.89-6.81-1.33-10.21-.06-.48-.11-.96-.16-1.44,1.61,2.37,3.14,4.78,4.6,7.24.16,1.25.31,2.51.47,3.76l1.29,10.21c.21,1.63.39,3.26.55,4.9.09.91.28,2.24.07,3.33,2.7,2.87,5.39,5.74,8.1,8.6,1.47,1.55,2.94,3.1,4.41,4.65-.69,1.32-2.03,2.23-3.72,1.69-.58-.18-1.15-.38-1.72-.57-.37-.39-.73-.77-1.1-1.16-3.41-3.6-6.81-7.21-10.2-10.83-4.56-4.86-9.1-9.74-13.63-14.64-.33.14-.68.25-1.13.31-.9.13-1.82.11-2.73.1-1.73-.01-3.46-.11-5.18-.28-3.53-.35-7.03-.9-10.53-1.44-1.45-.23-2.91-.45-4.37-.66-1.67-1.5-3.3-3.04-4.89-4.62,3.18.33,6.33.84,9.48,1.37,3.43.58,6.86,1.17,10.31,1.58,1.68.2,3.37.39,5.05.53.4.03.8.05,1.21.07-1.18-1.28-2.37-2.56-3.55-3.84-9.6-10.44-19.13-20.94-28.57-31.52-.09.01-.18.04-.27.04-1.62.16-3.24.34-4.86.44-3.25.19-6.49.38-9.74.49-.87.03-1.73.06-2.6.1-.8-1.42-1.58-2.86-2.33-4.31,2.26-.04,4.53-.09,6.79-.13Z"/>
    </g>
    <g>
      <path class="cls-9" d="M64.39,379.32c9.13,11.27,16.26,24.18,21.1,37.84,4.82,13.6,7.61,28.22,7.6,42.67,0,4.09-.19,8.18-.57,12.25-.32,3.36-.71,6.64-1.64,9.84.44.74.62,1.64.36,2.6-.52,1.89-3.07,3.46-4.75,1.7-10.27-10.81-18.23-23.65-23.49-37.6-5.2-13.8-7.75-28.65-7.28-43.39.27-8.39,1.41-16.7,3.6-24.81.65-2.42,3.48-3.07,5.08-1.1Z"/>
      <path class="cls-12" d="M60.54,408.61c2.02,1.06,4.02,2.16,6,3.3.37.21.73.43,1.09.65-.74-3.23-1.47-6.46-2.19-9.7-.97-4.38-1.94-8.75-2.83-13.15-.44-2.2-.89-4.4-1.32-6.61-.21-1.05-.39-2.09-.54-3.15-.07-.48-.09-.95-.07-1.41.73-.43,1.62-.52,2.43-.19.47,1.08.78,2.22,1.07,3.42.46,1.91.91,3.82,1.37,5.73.6,2.51,1.19,5.02,1.77,7.54.55-1.84,1.11-3.67,1.67-5.5.29-.96.59-1.92.9-2.88.74,1.07,1.47,2.14,2.17,3.23-.06.19-.13.38-.19.56-.62,1.83-1.24,3.65-1.86,5.48-.31.91-.66,1.81-1.04,2.69-.16.38-.36.7-.58,1.01,1.74,7.51,3.49,15.03,5.28,22.53.52,2.2,1.05,4.39,1.58,6.59.25-.77.5-1.53.77-2.29.88-2.55,1.76-5.11,2.64-7.66.86-2.5,1.74-4.99,2.64-7.47.29-.79.61-1.57.96-2.34.63,1.45,1.23,2.92,1.8,4.39-.76,2.24-1.53,4.47-2.32,6.69l-2.65,7.47c-.69,1.93-1.27,4.42-2.67,6.05,2.79,11.52,5.64,23.03,8.58,34.52.34-.95.7-1.9,1.07-2.84,1.01-2.58,2.01-5.15,3.02-7.73,1.01-2.58,2.01-5.15,3.02-7.73.14-.36.29-.72.44-1.08.22,2.3.36,4.6.45,6.9-.38.95-.75,1.89-1.13,2.84l-3.05,7.71c-.49,1.23-.99,2.46-1.51,3.67-.29.68-.67,1.69-1.24,2.38.79,3.07,1.58,6.15,2.38,9.22.44,1.67.87,3.33,1.31,4.99-1,.66-2.3.79-3.28-.25-.34-.35-.66-.71-.99-1.07-.11-.41-.22-.83-.33-1.24-1.01-3.87-2.02-7.73-3.01-11.6-1.34-5.2-2.65-10.41-3.95-15.62-.29-.03-.58-.09-.92-.22-.69-.25-1.33-.63-1.97-.98-1.22-.68-2.4-1.42-3.55-2.2-2.36-1.61-4.62-3.36-6.88-5.1-.94-.72-1.88-1.44-2.83-2.16-.6-1.7-1.15-3.42-1.67-5.16,2.12,1.46,4.15,3.05,6.16,4.64,2.2,1.74,4.39,3.48,6.67,5.11,1.11.79,2.23,1.58,3.36,2.33.27.18.55.35.82.52-.34-1.36-.68-2.72-1.02-4.09-2.73-11.09-5.39-22.21-7.96-33.34-.07-.03-.14-.04-.21-.07-1.2-.52-2.42-1.01-3.6-1.58-2.37-1.12-4.73-2.25-7.07-3.43-.62-.31-1.25-.63-1.87-.94-.02-1.32,0-2.63.02-3.95,1.62.85,3.23,1.69,4.85,2.54Z"/>
    </g>
    <g>
      <path class="cls-12" d="M92.63,310.96c11.6,4.06,22.49,10.19,32.07,17.89,9.53,7.66,18.06,16.96,24.48,27.39,1.82,2.95,3.5,5.98,5.04,9.09,1.27,2.57,2.44,5.1,3.2,7.82.65.33,1.18.91,1.41,1.71.47,1.6-.68,3.87-2.67,3.34-12.22-3.22-23.68-8.93-33.68-16.65-9.89-7.63-18.35-17.21-24.57-28.04-3.54-6.17-6.42-12.67-8.46-19.49-.61-2.04,1.14-3.77,3.17-3.06Z"/>
      <path class="cls-9" d="M102.91,333.79c1.93-.14,3.87-.23,5.8-.29.36-.01.72-.01,1.08-.02-1.97-2-3.94-4.01-5.9-6.02-2.65-2.72-5.3-5.45-7.89-8.22-1.3-1.39-2.6-2.78-3.9-4.17-.62-.66-1.21-1.34-1.79-2.03-.27-.32-.48-.65-.68-.98.33-.64.94-1.09,1.67-1.22.82.57,1.55,1.26,2.29,1.99,1.18,1.18,2.36,2.35,3.54,3.52,1.55,1.54,3.09,3.09,4.63,4.64-.42-1.57-.83-3.14-1.25-4.71-.22-.82-.43-1.65-.63-2.48,1.01.44,2.01.89,3.01,1.36.04.16.08.33.11.49.37,1.59.73,3.18,1.1,4.78.18.79.33,1.6.45,2.4.05.34.05.67.03.99,4.6,4.64,9.21,9.28,13.84,13.9,1.36,1.35,2.72,2.7,4.08,4.05-.16-.66-.32-1.33-.47-1.99-.5-2.23-1-4.47-1.51-6.7-.49-2.19-.97-4.37-1.42-6.57-.15-.7-.26-1.41-.35-2.12,1.1.77,2.18,1.56,3.25,2.36.45,1.95.89,3.9,1.31,5.86l1.41,6.57c.37,1.7,1.05,3.75.77,5.56,7.14,7.07,14.32,14.1,21.56,21.07-.18-.84-.34-1.68-.49-2.52-.42-2.31-.84-4.61-1.26-6.92-.42-2.31-.84-4.61-1.26-6.92-.06-.32-.11-.65-.16-.97,1.18,1.56,2.31,3.15,3.39,4.77.15.85.3,1.7.45,2.55l1.23,6.92c.2,1.11.38,2.21.55,3.32.09.62.27,1.52.17,2.27,1.94,1.86,3.88,3.73,5.82,5.58,1.06,1.01,2.11,2.01,3.17,3.02-.43.92-1.3,1.59-2.48,1.28-.4-.11-.79-.22-1.19-.33-.26-.25-.53-.5-.79-.75-2.45-2.34-4.9-4.68-7.34-7.03-3.28-3.16-6.55-6.33-9.8-9.51-.22.11-.46.19-.76.25-.61.12-1.24.14-1.86.17-1.18.05-2.36.05-3.54,0-2.42-.11-4.83-.37-7.23-.61-1-.1-2-.2-3-.29-1.19-.96-2.35-1.96-3.5-2.98,2.18.11,4.35.35,6.51.6,2.36.27,4.72.56,7.08.72,1.15.08,2.31.15,3.46.19.27,0,.55,0,.82,0-.85-.83-1.71-1.66-2.55-2.49-6.91-6.78-13.78-13.61-20.58-20.5-.06.01-.12.03-.18.04-1.1.16-2.2.35-3.3.47-2.21.24-4.41.49-6.63.68-.59.05-1.18.1-1.77.16-.6-.94-1.18-1.9-1.74-2.86,1.54-.11,3.08-.22,4.63-.33Z"/>
    </g>
    <g>
      <path class="cls-12" d="M182.34,251.38c5.2,7.08,9.15,15.09,11.69,23.49,2.53,8.36,3.8,17.29,3.38,26.03-.12,2.47-.35,4.94-.7,7.39-.29,2.03-.62,3.99-1.27,5.9.25.46.33,1.01.14,1.58-.37,1.13-1.96,2.01-2.92.89-5.9-6.83-10.36-14.82-13.14-23.41-2.75-8.49-3.88-17.55-3.17-26.46.4-5.07,1.33-10.06,2.88-14.91.46-1.45,2.19-1.76,3.1-.52Z"/>
      <path class="cls-9" d="M179.18,268.99c1.19.7,2.37,1.42,3.53,2.17.22.14.43.28.64.42-.35-1.98-.71-3.95-1.05-5.93-.46-2.68-.93-5.35-1.34-8.03-.21-1.34-.41-2.69-.61-4.03-.1-.64-.17-1.28-.23-1.92-.03-.3-.03-.58,0-.86.45-.24.99-.27,1.48-.04.25.67.41,1.37.55,2.1.22,1.17.44,2.34.67,3.51.29,1.53.57,3.07.86,4.61.38-1.09.78-2.19,1.16-3.28.2-.57.41-1.15.63-1.72.42.67.83,1.34,1.22,2.02-.04.11-.09.22-.13.34-.43,1.09-.85,2.17-1.28,3.26-.21.54-.45,1.07-.7,1.6-.11.22-.24.41-.38.6.84,4.6,1.68,9.19,2.55,13.78.25,1.34.51,2.69.77,4.03.17-.46.35-.91.53-1.36.61-1.52,1.21-3.04,1.82-4.56.59-1.49,1.19-2.97,1.81-4.45.2-.47.42-.93.65-1.39.34.9.66,1.8.96,2.71-.52,1.33-1.05,2.66-1.59,3.98l-1.82,4.44c-.47,1.15-.9,2.64-1.79,3.59,1.36,7.05,2.76,14.09,4.21,21.13.24-.57.48-1.13.73-1.69.68-1.53,1.36-3.06,2.05-4.59.68-1.53,1.36-3.06,2.05-4.59.1-.22.2-.43.3-.64.07,1.4.09,2.79.07,4.19-.25.56-.51,1.12-.76,1.69l-2.07,4.58c-.33.73-.67,1.46-1.02,2.18-.2.4-.45,1.01-.82,1.41.39,1.88.78,3.76,1.18,5.64.22,1.02.43,2.04.65,3.06-.63.37-1.41.41-1.98-.25-.19-.22-.38-.45-.57-.68-.05-.25-.11-.51-.16-.76-.5-2.37-1-4.74-1.49-7.1-.66-3.19-1.31-6.37-1.95-9.56-.17-.03-.35-.07-.55-.16-.41-.17-.78-.42-1.16-.65-.72-.45-1.41-.92-2.09-1.43-1.38-1.04-2.7-2.16-4.02-3.28-.55-.46-1.1-.93-1.65-1.39-.31-1.05-.6-2.1-.86-3.17,1.24.95,2.42,1.96,3.6,2.98,1.28,1.11,2.56,2.23,3.89,3.28.65.51,1.3,1.02,1.97,1.51.16.12.32.23.48.34-.17-.83-.34-1.67-.5-2.5-1.34-6.79-2.63-13.59-3.86-20.4-.04-.02-.08-.03-.13-.05-.71-.35-1.43-.68-2.13-1.06-1.4-.75-2.8-1.5-4.18-2.28-.37-.21-.74-.41-1.11-.62.03-.8.07-1.59.13-2.39.95.56,1.91,1.12,2.86,1.68Z"/>
    </g>
    <g>
      <path class="cls-9" d="M142.34,248.11c9.58,5.11,18.27,11.92,25.59,19.93,7.29,7.97,13.49,17.24,17.69,27.2,1.19,2.82,2.26,5.69,3.18,8.61.76,2.41,1.45,4.78,1.74,7.26.52.38.91.95,1.01,1.68.2,1.46-1.11,3.28-2.78,2.56-10.23-4.45-19.47-10.98-27.16-19.06-7.61-7.99-13.71-17.49-17.69-27.79-2.26-5.86-3.91-11.93-4.76-18.15-.26-1.86,1.5-3.13,3.18-2.24Z"/>
      <path class="cls-12" d="M148.24,269.43c1.7.14,3.41.32,5.1.53.31.04.63.08.94.13-1.45-2.01-2.9-4.03-4.34-6.05-1.95-2.73-3.89-5.47-5.79-8.24-.95-1.39-1.9-2.78-2.84-4.17-.45-.66-.88-1.33-1.29-2.01-.19-.31-.34-.63-.46-.95.38-.51.96-.83,1.62-.84.64.61,1.19,1.31,1.73,2.05.87,1.18,1.75,2.37,2.62,3.55,1.15,1.55,2.28,3.12,3.42,4.68-.16-1.42-.3-2.85-.46-4.28-.08-.75-.16-1.5-.22-2.25.82.52,1.64,1.05,2.44,1.59.01.15.02.3.03.44.11,1.44.21,2.88.32,4.32.05.72.07,1.44.07,2.16,0,.31-.04.59-.1.87,3.39,4.67,6.79,9.34,10.21,13.99,1,1.36,2.01,2.72,3.01,4.08-.05-.6-.1-1.2-.14-1.8-.14-2.02-.28-4.04-.41-6.05-.13-1.97-.26-3.95-.36-5.92-.03-.63-.04-1.26-.02-1.89.86.82,1.7,1.65,2.52,2.5.13,1.76.25,3.53.35,5.29l.35,5.92c.09,1.53.41,3.42-.07,4.95,5.29,7.13,10.61,14.23,15.99,21.29-.04-.76-.07-1.51-.09-2.27-.06-2.07-.12-4.14-.17-6.21-.06-2.07-.12-4.14-.17-6.21,0-.29-.01-.58,0-.87.82,1.52,1.59,3.06,2.32,4.62.02.76.03,1.53.05,2.29l.15,6.21c.02.99.04,1.98.03,2.97,0,.55.03,1.36-.16,2.01,1.44,1.89,2.88,3.78,4.33,5.66.79,1.02,1.57,2.04,2.36,3.06-.5.75-1.35,1.21-2.34.79-.33-.15-.66-.3-1-.45-.2-.25-.39-.51-.59-.76-1.83-2.37-3.65-4.74-5.46-7.12-2.44-3.2-4.86-6.4-7.28-9.62-.21.06-.43.11-.7.12-.55.03-1.1-.04-1.64-.1-1.04-.11-2.07-.28-3.09-.48-2.1-.42-4.16-.97-6.23-1.51-.86-.22-1.72-.45-2.58-.66-.91-1-1.79-2.03-2.65-3.07,1.89.39,3.75.89,5.61,1.4,2.02.56,4.04,1.12,6.09,1.58,1,.22,2,.44,3,.63.24.04.48.08.72.11-.63-.84-1.27-1.68-1.89-2.52-5.12-6.85-10.2-13.73-15.22-20.66-.06,0-.11.01-.17.01-.98,0-1.96,0-2.94-.03-1.96-.08-3.92-.17-5.88-.3-.52-.03-1.04-.07-1.56-.1-.4-.9-.77-1.81-1.14-2.73,1.36.11,2.72.22,4.08.34Z"/>
    </g>
    <g>
      <path class="cls-10" d="M86.68,522.66c-15,0-23.89,3.29-23.89,7.73s46.5,35.32,64.44,38.78c17.94,3.46,22.63-7.09,22.63-7.09,0,0-20.63-12.77-23.44-14.43s-39.74-24.99-39.74-24.99Z"/>
      <path class="cls-21" d="M75.16,454.35c-2.81,7.77-4.55,70.68-2.99,73.46,4.03,7.16,60.81,37.6,60.81,37.6,0,0,30.95-51.63,27.2-54.41s-7.5-34.42-14.07-33.31c-6.56,1.11-70.95-23.34-70.95-23.34Z"/>
      <path class="cls-10" d="M617.46,479.02s-61.66-36.82-72.35-40.78c-10.69-3.95-459.49,2.99-474.21,8.38-3.8,1.39-10.09,6.25-5.76,8.38,10.73,5.29,64.77,29.56,64.77,29.56,0,0,14.69,22.93,25.38,22.14,10.69-.79,345.96-3.95,349.97-5.54,4.01-1.58,112.2-22.14,112.2-22.14Z"/>
      <path class="cls-7" d="M617.46,479.02c-8.01-1.58-479.89,6.52-487.55,5.54-7.66-.99-8.01,80.66-2.67,84.61,5.34,3.95,480.96-3.95,487.64-6.33,6.68-2.37,2.58-83.82,2.58-83.82Z"/>
      <path class="cls-1" d="M107.69,480.86c-.57-1-1.46-1.36-2.52-1.68-1.3-.39-2.61-.74-3.9-1.14-2.47-.76-4.91-1.56-7.34-2.45-2.35-.86-4.68-1.78-7-2.71-1.23-.49-2.45-1.03-3.69-1.51-.53-.21-1.1-.51-1.66-.61-.54-.09-.99.1-1.53.16-.11.01-.14.13-.09.21.26.44.38.94.77,1.3.44.41,1.11.69,1.63.99,1.16.66,2.36,1.23,3.56,1.81,2.4,1.16,4.85,2.17,7.34,3.11,2.41.91,4.85,1.76,7.31,2.5,2.06.62,5.01,2.09,7.02.83.29-.18.26-.56.12-.81Z"/>
      <path class="cls-1" d="M101.93,488.79c-.55-1.15-2.44-1.46-3.54-1.8-1.42-.45-2.83-.95-4.22-1.48-2.73-1.04-5.39-2.58-8.31-2.9-.11-.01-.26.12-.16.23.97,1.2,2.01,1.94,3.37,2.67,1.36.73,2.77,1.37,4.2,1.95,1.42.58,2.87,1.1,4.33,1.58,1.16.38,3.06,1.2,4.18.41.23-.16.27-.42.15-.67Z"/>
      <path class="cls-1" d="M116.26,501.72c-1.14-1.59-3.81-1.61-5.56-2-2.24-.5-4.46-1.11-6.64-1.84-2.23-.74-4.39-1.65-6.54-2.61-.98-.44-1.94-.92-2.92-1.36-1.02-.45-1.74-.65-2.83-.72-.14,0-.19.17-.13.26.57.97,1.13,1.52,2.09,2.15,1.02.68,2.11,1.27,3.2,1.84,2.04,1.05,4.17,1.95,6.32,2.74,2.12.78,4.27,1.46,6.47,1.99,1.8.43,4.76,1.52,6.4.21.19-.15.3-.44.14-.66Z"/>
      <path class="cls-1" d="M110.15,506.78c-.88-.37-1.77-.72-2.65-1.11-.85-.38-1.87-.51-2.79-.63-.91-.12-1.82-.25-2.74-.27-.47,0-.95-.02-1.42.06-.27.05-.55.27-.81.24-.15-.01-.18.22-.03.26.26.07.48.37.71.5.42.24.88.38,1.34.54.88.29,1.79.48,2.69.66.91.18,1.92.39,2.85.29.93-.1,1.87-.1,2.81-.16.24-.01.26-.31.05-.39Z"/>
      <path class="cls-1" d="M106.05,516.21c-.19-.34-.17-.75-.41-1.07-.34-.46-.97-.72-1.48-.92-1.15-.45-2.4-.66-3.62-.85-2.49-.39-4.97-.7-7.42-1.33-2.38-.62-4.7-1.43-6.97-2.38-1.15-.48-2.27-1.03-3.4-1.56-.82-.38-1.79-.94-2.7-.6-.06.02-.09.09-.09.16.14,1.83,3.31,3.13,4.69,3.87,2.2,1.18,4.53,2.15,6.91,2.88,2.31.7,4.66,1.22,7.04,1.56,1.26.18,2.52.35,3.75.65.63.15,1.27.41,1.91.5.24.03,1.11-.22,1.1-.22.37.14.92-.26.68-.68Z"/>
      <g>
        <path class="cls-1" d="M110.26,526.81c-.06,0-.08,0,0,0h0Z"/>
        <path class="cls-1" d="M110.71,524.26c-1.34-.53-2.85-.64-4.27-.88-1.39-.23-2.77-.48-4.16-.68-1.4-.2-2.79-.42-4.19-.59-.72-.09-1.43-.17-2.16-.23-.24-.02-.57-.09-.81-.05-.04-.02-.05-.02-.07-.02,0-.01,0-.02,0-.03-.74-.89-1.67.43-1.1,1.26.44.64,1.33.79,2.02.97.95.25,1.92.45,2.88.65,1.89.37,3.78.73,5.67,1.06,1.58.28,3.25.7,4.88.81.01.01.02.03.04.04.19.13.41.22.64.25.1.02.21-.01.31-.03-.08.01-.1.01-.13.02.06,0,.15-.02.21-.02.49-.03.87-.31,1.02-.79.07-.21.1-.4.07-.61-.06-.57-.33-.92-.85-1.13Z"/>
      </g>
      <path class="cls-1" d="M86.66,530.38c-.06-.08-.17-.15-.22-.23.02.08.04.16.06.24-.02-.39-.29-.6-.61-.78.09.09.17.17.26.26-.29-.42-.73-.58-1.18-.77-.34-.14-.69-.25-1.05-.34-.35-.09-.72-.16-1.08-.23-.35-.06-.75-.16-1.11-.08-.04,0-.08,0-.12,0-.19,0-.41.1-.5.29-.15,0-.19.18-.08.26,0,.01,0,.02,0,.03-.02.21.13.39.29.5-.14-.11.18.2.23.22.09.05.19.09.28.13.22.11.44.21.67.3.41.17.81.34,1.23.47.41.13.81.22,1.23.29.26.04.49.02.73.01.14,0,.26-.01.4-.06.08-.03.14-.08.2-.12.07,0,.15,0,.22-.04.14-.05.25-.23.15-.37Z"/>
      <path class="cls-1" d="M110.85,536.59c-.32-.59-.97-1.09-1.55-1.36-.75-.34-1.54-.55-2.33-.77-.74-.21-1.48-.44-2.24-.54-.38-.05-.74-.09-1.13-.1-.17,0-.37,0-.54.02-.21.04-.39.13-.62.11-.22-.02-.28.3-.11.4.19.11.31.31.46.46.12.11.25.2.38.29.3.21.62.4.95.56.73.36,1.5.61,2.27.88.71.25,1.42.53,2.16.66.7.12,1.53.11,2.19-.22.14-.07.17-.26.1-.39Z"/>
      <path class="cls-10" d="M202.57,521.24c-.13-4.83-.16-9.68-.58-14.5-.23-2.61-.49-5.23-.78-7.83-.31-2.81-.51-5.7-1.2-8.44-.19-.77-.86-1.43-1.63-1.63-.59-.15-1.07-.12-1.62.15-.06.03-.12.06-.18.09-.75.37-1.12,1.23-1.16,2.02-.12,2.36.12,4.74.21,7.11.09,2.37.16,4.75.2,7.12.08,4.68.24,9.35.24,14.03,0,9.42-.64,18.9-1.38,28.28-.21,2.69-.46,5.37-.74,8.06-.13,1.26-.27,2.52-.42,3.78-.18,1.58-.53,3.14-.14,4.71l.02-.03c.19.71.6,1.36,1.24,1.85,1.6,1.23,4.15.88,5.15-.98,1.21-2.25,1.12-5.39,1.38-7.91.25-2.37.47-4.73.66-7.1.4-4.82.66-9.65.79-14.48.13-4.77.05-9.5-.08-14.27Z"/>
      <path class="cls-10" d="M190.48,537.12c-.1-9.24-.17-18.49-.66-27.72-.14-2.57-.25-5.14-.43-7.71-.09-1.29-.19-2.57-.29-3.86-.11-1.39-.06-2.94-.48-4.27-.7-2.24-4.19-2.48-4.78,0-.54,2.25-.24,4.86-.27,7.17-.03,2.25-.01,4.5-.01,6.75,0,4.58.04,9.16.1,13.74.13,9.24.17,18.48.13,27.72-.01,2.57-.03,5.14-.05,7.72-.01,1.29-.02,2.57-.03,3.86-.01,1.62-.23,3.29.66,4.73l.03-.03c.2.35.46.67.78.92,1.53,1.18,3.62.71,4.65-.89.81-1.25.7-2.59.71-4.01.01-1.21.02-2.41.02-3.62,0-2.25,0-4.5,0-6.75,0-4.58-.04-9.16-.09-13.74Z"/>
      <path class="cls-10" d="M211.7,504.73c-.21-2.78-.43-5.56-.78-8.33-.19-1.49-.34-2.99-.58-4.47-.22-1.35-.5-2.93-1.79-3.64-.72-.39-1.44-.23-2.04.26-.98.8-.98,2.16-1.04,3.33-.06,1.26.03,2.54.06,3.81.05,2.46.14,4.92.22,7.38.15,4.92.23,9.85.24,14.78,0,9.86-.4,19.72-.93,29.57-.14,2.7-.31,5.4-.51,8.1-.1,1.43-.21,2.86-.33,4.28-.13,1.51-.56,3.31.01,4.74.83,2.09,3.08,3.36,5.21,2.12.54-.32.95-.78,1.24-1.3l.03.03c.83-1.33.8-2.89.92-4.4.11-1.35.21-2.69.31-4.04.17-2.46.33-4.92.46-7.38.27-5.01.41-10,.41-15.02,0-9.94-.34-19.89-1.1-29.81Z"/>
      <path class="cls-10" d="M533.77,517.78c-.13-4.83-.16-9.68-.58-14.5-.23-2.61-.49-5.23-.78-7.83-.31-2.81-.51-5.7-1.2-8.44-.19-.77-.86-1.43-1.63-1.63-.59-.15-1.07-.12-1.62.15-.06.03-.12.06-.18.09-.75.37-1.12,1.23-1.16,2.02-.12,2.36.12,4.74.21,7.11.09,2.37.16,4.75.2,7.12.08,4.68.24,9.35.24,14.03,0,9.42-.64,18.9-1.38,28.28-.21,2.69-.46,5.37-.74,8.06-.13,1.26-.27,2.52-.42,3.78-.18,1.58-.53,3.14-.14,4.71l.02-.03c.19.71.6,1.36,1.24,1.85,1.59,1.23,4.15.88,5.15-.98,1.21-2.25,1.12-5.39,1.38-7.91.25-2.37.47-4.73.66-7.1.4-4.82.66-9.65.79-14.48.13-4.77.05-9.5-.08-14.27Z"/>
      <path class="cls-10" d="M521.69,533.67c-.1-9.24-.17-18.49-.66-27.72-.14-2.57-.25-5.14-.43-7.71-.09-1.29-.19-2.57-.29-3.86-.11-1.39-.06-2.94-.48-4.27-.7-2.24-4.19-2.48-4.78,0-.54,2.25-.24,4.85-.27,7.17-.03,2.25-.01,4.5-.01,6.75,0,4.58.04,9.16.1,13.74.13,9.24.17,18.48.13,27.72-.01,2.57-.03,5.14-.05,7.72-.01,1.29-.02,2.57-.03,3.86-.01,1.62-.23,3.29.66,4.73l.03-.03c.2.35.46.67.78.92,1.53,1.18,3.62.71,4.65-.89.81-1.25.7-2.59.71-4.01.01-1.21.02-2.41.02-3.62,0-2.25,0-4.5,0-6.75,0-4.58-.04-9.16-.09-13.74Z"/>
      <path class="cls-10" d="M542.91,501.28c-.21-2.78-.43-5.56-.78-8.33-.19-1.49-.34-2.99-.58-4.47-.22-1.35-.5-2.93-1.79-3.64-.72-.39-1.44-.23-2.04.26-.98.8-.98,2.16-1.04,3.33-.06,1.26.03,2.54.06,3.81.05,2.46.14,4.92.22,7.38.15,4.92.23,9.85.24,14.78,0,9.86-.4,19.72-.93,29.57-.14,2.7-.31,5.4-.51,8.1-.1,1.43-.21,2.86-.33,4.28-.13,1.51-.56,3.31.01,4.74.83,2.09,3.08,3.36,5.21,2.12.54-.32.95-.78,1.24-1.3l.03.03c.83-1.33.8-2.89.92-4.4.11-1.35.21-2.69.31-4.04.17-2.46.33-4.92.46-7.38.27-5.01.41-10,.41-15.02,0-9.94-.34-19.89-1.1-29.81Z"/>
    </g>
    <g>
      <path class="cls-18" d="M113.76,435.89c-12.91,0-20.55,2.78-20.55,6.54s40,29.88,55.44,32.8c15.43,2.93,19.47-6,19.47-6,0,0-17.75-10.8-20.17-12.21-2.42-1.41-34.19-21.14-34.19-21.14Z"/>
      <path class="cls-21" d="M103.85,378.11c-2.42,6.57-3.91,59.79-2.57,62.14,3.47,6.06,52.31,31.8,52.31,31.8,0,0,26.62-43.67,23.4-46.02-3.23-2.35-6.45-29.12-12.1-28.18-5.65.94-61.04-19.74-61.04-19.74Z"/>
      <path class="cls-18" d="M570.37,398.98s-53.05-31.15-62.24-34.49c-9.19-3.34-395.28,2.53-407.95,7.09-3.27,1.18-8.68,5.28-4.95,7.09,9.23,4.47,55.72,25,55.72,25,0,0,12.64,19.4,21.83,18.73,9.19-.67,297.62-3.34,301.07-4.68s96.52-18.73,96.52-18.73Z"/>
      <path class="cls-3" d="M570.37,398.98c-6.89-1.34-412.83,5.52-419.42,4.68-6.59-.83-6.89,68.23-2.3,71.57,4.6,3.34,413.76-3.34,419.5-5.35,5.75-2.01,2.22-70.91,2.22-70.91Z"/>
      <path class="cls-1" d="M131.83,400.54c-.49-.85-1.25-1.15-2.17-1.42-1.12-.33-2.24-.63-3.36-.96-2.12-.64-4.23-1.32-6.31-2.08-2.02-.73-4.02-1.51-6.02-2.3-1.06-.42-2.11-.87-3.17-1.28-.46-.18-.94-.43-1.43-.51-.47-.08-.85.08-1.32.13-.09,0-.12.11-.08.18.23.38.33.8.66,1.1.38.35.95.59,1.4.84.99.56,2.03,1.04,3.06,1.53,2.06.98,4.17,1.83,6.31,2.63,2.07.77,4.17,1.49,6.29,2.12,1.77.53,4.31,1.77,6.04.7.25-.15.22-.47.1-.69Z"/>
      <path class="cls-1" d="M126.87,407.24c-.48-.97-2.1-1.23-3.05-1.53-1.22-.38-2.43-.8-3.63-1.25-2.35-.88-4.63-2.18-7.14-2.45-.1-.01-.22.1-.14.2.83,1.02,1.73,1.64,2.9,2.26,1.17.62,2.38,1.15,3.61,1.65,1.22.49,2.47.93,3.72,1.34,1,.32,2.63,1.01,3.6.35.2-.14.23-.36.13-.57Z"/>
      <path class="cls-1" d="M139.2,418.18c-.98-1.35-3.27-1.36-4.78-1.69-1.93-.43-3.84-.94-5.71-1.55-1.92-.63-3.78-1.39-5.63-2.21-.84-.37-1.67-.78-2.51-1.15-.88-.38-1.5-.55-2.43-.61-.12,0-.16.14-.11.22.49.82.98,1.29,1.8,1.82.88.57,1.81,1.08,2.75,1.55,1.75.89,3.59,1.65,5.44,2.31,1.83.66,3.68,1.23,5.57,1.68,1.55.36,4.09,1.29,5.5.18.17-.13.26-.37.12-.56Z"/>
      <path class="cls-1" d="M133.95,422.46c-.76-.31-1.52-.61-2.28-.94-.73-.32-1.61-.43-2.4-.53-.79-.1-1.57-.21-2.36-.23-.41,0-.82-.02-1.22.05-.23.04-.47.22-.7.2-.13-.01-.15.19-.03.22.23.06.41.31.61.43.37.2.76.33,1.15.45.75.25,1.54.41,2.32.56.78.15,1.65.33,2.45.25.8-.08,1.61-.08,2.42-.13.2-.01.22-.26.05-.33Z"/>
      <path class="cls-1" d="M130.42,430.44c-.17-.29-.15-.64-.36-.91-.29-.39-.83-.61-1.27-.77-.99-.38-2.06-.56-3.11-.72-2.14-.33-4.28-.59-6.38-1.13-2.05-.52-4.04-1.21-5.99-2.01-.99-.41-1.95-.88-2.93-1.32-.71-.32-1.54-.79-2.32-.51-.05.02-.08.08-.08.13.12,1.55,2.85,2.65,4.03,3.27,1.89,1,3.89,1.82,5.95,2.43,1.99.59,4,1.03,6.06,1.32,1.08.15,2.17.3,3.23.55.54.13,1.09.34,1.64.42.2.03.96-.18.95-.19.32.12.79-.22.58-.57Z"/>
      <g>
        <path class="cls-1" d="M134.04,439.4c-.06,0-.07,0,0,0h0Z"/>
        <path class="cls-1" d="M134.43,437.25c-1.16-.45-2.46-.54-3.67-.74-1.19-.2-2.39-.4-3.58-.57-1.2-.17-2.4-.36-3.6-.5-.62-.08-1.23-.15-1.85-.19-.21-.02-.49-.08-.7-.04-.03-.01-.05-.01-.06-.02,0,0,0-.02,0-.03-.63-.75-1.44.37-.95,1.06.38.54,1.14.67,1.74.82.82.21,1.65.38,2.48.55,1.62.31,3.25.62,4.88.9,1.36.23,2.8.6,4.2.68.01.01.02.03.03.04.17.11.36.18.55.21.09.01.18,0,.27-.02-.07,0-.09.01-.11.02.06,0,.13-.02.18-.02.42-.03.75-.27.88-.66.06-.17.08-.34.06-.52-.05-.48-.28-.78-.73-.95Z"/>
      </g>
      <path class="cls-1" d="M113.74,442.43c-.05-.07-.15-.13-.19-.2.02.07.04.13.05.2-.02-.33-.25-.51-.52-.66.07.07.15.15.22.22-.25-.35-.63-.49-1.02-.65-.29-.12-.6-.21-.9-.29-.3-.08-.62-.14-.93-.19-.3-.05-.65-.14-.95-.07-.03,0-.07,0-.1,0-.17,0-.35.09-.43.24-.13,0-.17.15-.07.22,0,0,0,.02,0,.03-.02.18.11.33.25.43-.12-.09.16.17.19.19.07.04.16.08.24.11.19.09.38.18.58.25.35.14.7.29,1.06.4.35.11.69.19,1.06.24.23.03.42.02.63.01.12,0,.23,0,.34-.05.07-.03.12-.07.18-.1.06,0,.13,0,.19-.03.12-.04.22-.19.13-.32Z"/>
      <path class="cls-1" d="M134.55,447.68c-.28-.5-.83-.92-1.34-1.15-.64-.29-1.32-.46-2-.65-.63-.18-1.27-.37-1.92-.46-.32-.04-.64-.08-.97-.08-.15,0-.32,0-.46.02-.18.03-.34.11-.53.09-.19-.01-.24.25-.09.34.16.09.26.26.4.39.1.09.21.17.32.25.26.18.53.34.81.48.62.31,1.29.52,1.95.74.61.21,1.22.45,1.86.56.6.1,1.32.09,1.89-.19.12-.06.15-.22.09-.33Z"/>
      <path class="cls-18" d="M475.47,410.99c-.04-1.41,0-3.03-1.19-4-.72-.59-1.88-.97-2.74-.35-1.42,1.01-1.59,2.23-1.75,3.87-.11,1.12-.17,2.24-.22,3.37-.1,2.41-.21,4.81-.31,7.22-.19,4.89-.31,9.78-.47,14.67-.15,4.81-.3,9.62-.45,14.43-.08,2.41-.15,4.81-.23,7.22-.04,1.2-.08,2.41-.11,3.61-.05,1.51-.27,2.97.56,4.32,1.19,1.91,3.67,1.73,4.89,0,.88-1.25.69-2.85.74-4.32.03-1.12.06-2.24.1-3.37l.21-7.22c.14-4.81.28-9.62.41-14.43.14-4.81.3-9.62.41-14.43.06-2.41.09-4.81.13-7.22.02-1.12.03-2.24,0-3.37Z"/>
      <path class="cls-18" d="M485.1,436.36c-.05-2.32-.08-4.65-.2-6.98-.06-1.12-.18-2.25-.32-3.37-.08-.67-.23-1.36-.47-2-.23-.62-.61-.92-1.03-1.39-.49-.55-1.47-.53-1.97,0-.44.46-.81.76-1.05,1.39-.24.65-.4,1.32-.49,2-.15,1.12-.3,2.24-.38,3.37-.16,2.32-.23,4.65-.32,6.98-.19,4.56-.37,9.13-.38,13.7-.3,1.57.62,3.08,2.24,3.66.08.03.15.05.23.08,2.12.75,4.22-1.2,4.26-3.24.09-4.73-.01-9.46-.12-14.19Z"/>
      <path class="cls-18" d="M350.17,435.35c-.22-4.16-.95-8.41-2.77-11.08-3.51-5.15-8.23-4.5-13.55-5.19-.11-.01-.21-.04-.32-.05-4.35-.49-8.5,1.16-11.78,3.94-5.51,4.67-7.52,12.89-5.65,19.74,1.89,6.9,7.72,12.42,14.5,14.45,4.01,1.2,8.38,1.25,12.19-.62,4.91-2.41,6.77-7.33,7.21-12.65.19-2.32.33-5.41.16-8.54Z"/>
      <path class="cls-18" d="M204.16,439.9c-.07-4.98-.14-9.96-.28-14.94-.07-2.49-.22-4.98-.38-7.47-.15-2.33.14-5.57-1.18-7.59-.67-1.02-2.26-1.15-2.9,0-1.19,2.13-.75,5.23-.78,7.59-.03,2.41-.09,4.82-.08,7.23,0,5.06-.03,10.12-.17,15.18-.14,4.98-.38,9.96-.57,14.94-.19,5.04-.59,10.13-.59,15.17,0,1.72,1.47,3.19,3.19,3.19,1.87,0,3.02-1.47,3.19-3.19.49-4.93.49-9.98.59-14.93.1-5.06.03-10.13-.04-15.18Z"/>
      <path class="cls-18" d="M193.68,423.43c-.08-1.03-.83-3.43-2.39-2.85-1.57.58-2.03,1.84-2.34,3.39-.33,1.62-.58,3.25-.77,4.9-.36,3.07-.65,6.15-.87,9.24-.22,3.08-.27,6.17-.29,9.26,0,1.58,0,3.17.03,4.75.03,1.81-.03,3.48.88,5.1.89,1.57,3.63,1.79,4.46,0,.42-.92.72-1.69.72-2.73,0-.79-.06-1.58-.08-2.37-.04-1.58-.07-3.17-.07-4.75-.01-3.25.08-6.49.16-9.73.07-3.16.22-6.32.44-9.47.11-1.54.25-3.18.13-4.72Z"/>
    </g>
    <g>
      <path class="cls-10" d="M155.01,355.39c-10.55,0-16.8,2.53-16.8,5.95s32.7,27.16,45.31,29.82c12.62,2.66,15.91-5.45,15.91-5.45,0,0-14.51-9.82-16.48-11.1-1.98-1.28-27.94-19.22-27.94-19.22Z"/>
      <path class="cls-21" d="M146.91,302.86c-1.98,5.98-3.2,54.36-2.1,56.49,2.84,5.51,42.76,28.91,42.76,28.91,0,0,21.76-39.71,19.12-41.84-2.64-2.13-5.27-26.47-9.89-25.62-4.62.85-49.89-17.95-49.89-17.95Z"/>
      <path class="cls-10" d="M528.21,321.83s-43.36-28.32-50.87-31.36-323.07,2.3-333.42,6.44c-2.67,1.07-7.09,4.8-4.05,6.44,7.54,4.07,45.54,22.73,45.54,22.73,0,0,10.33,17.64,17.84,17.03,7.51-.61,243.25-3.04,246.07-4.26,2.82-1.22,78.89-17.03,78.89-17.03Z"/>
      <path class="cls-7" d="M528.21,321.83c-5.64-1.22-337.41,5.02-342.8,4.26-5.39-.76-5.64,62.03-1.88,65.07,3.76,3.04,338.17-3.04,342.87-4.87,4.7-1.82,1.81-64.46,1.81-64.46Z"/>
      <path class="cls-1" d="M169.78,323.25c-.4-.77-1.02-1.04-1.77-1.29-.91-.3-1.83-.57-2.74-.88-1.73-.58-3.46-1.2-5.16-1.89-1.65-.66-3.29-1.37-4.92-2.09-.87-.38-1.72-.79-2.59-1.16-.37-.16-.77-.39-1.17-.47-.38-.07-.7.08-1.08.12-.07,0-.1.1-.06.16.19.34.27.72.54,1,.31.32.78.53,1.14.76.81.51,1.66.95,2.5,1.39,1.69.89,3.41,1.67,5.16,2.39,1.7.7,3.41,1.35,5.14,1.92,1.45.48,3.52,1.61,4.93.64.2-.14.18-.43.08-.62Z"/>
      <path class="cls-1" d="M165.73,329.34c-.39-.88-1.72-1.12-2.49-1.39-1-.34-1.99-.73-2.97-1.14-1.92-.8-3.79-1.98-5.84-2.23-.08,0-.18.09-.12.18.68.93,1.42,1.49,2.37,2.06.95.56,1.95,1.05,2.95,1.5,1,.45,2.02.85,3.04,1.22.82.29,2.15.92,2.94.32.16-.12.19-.33.11-.52Z"/>
      <path class="cls-1" d="M175.81,339.29c-.8-1.22-2.68-1.24-3.91-1.54-1.57-.39-3.14-.86-4.67-1.41-1.57-.57-3.09-1.27-4.6-2.01-.69-.34-1.36-.71-2.05-1.05-.72-.35-1.23-.5-1.99-.55-.1,0-.13.13-.09.2.4.74.8,1.17,1.47,1.66.72.52,1.48.98,2.25,1.41,1.43.81,2.93,1.5,4.45,2.1,1.49.6,3,1.12,4.55,1.53,1.26.33,3.35,1.17,4.5.16.14-.12.21-.34.1-.51Z"/>
      <path class="cls-1" d="M171.51,343.18c-.62-.28-1.24-.56-1.86-.85-.6-.29-1.32-.39-1.96-.48-.64-.09-1.28-.2-1.93-.21-.33,0-.67-.02-1,.05-.19.04-.38.2-.57.18-.1-.01-.12.17-.02.2.18.05.34.28.5.39.3.18.62.3.94.41.62.22,1.26.37,1.89.51.64.14,1.35.3,2,.23.66-.07,1.32-.08,1.97-.12.17-.01.18-.24.04-.3Z"/>
      <path class="cls-1" d="M168.63,350.44c-.14-.26-.12-.58-.29-.82-.24-.35-.68-.55-1.04-.7-.81-.35-1.69-.51-2.54-.66-1.75-.3-3.5-.54-5.21-1.03-1.67-.48-3.3-1.1-4.9-1.83-.81-.37-1.59-.8-2.39-1.2-.58-.29-1.26-.72-1.9-.46-.04.02-.07.07-.06.12.1,1.41,2.33,2.41,3.3,2.97,1.55.9,3.18,1.66,4.86,2.21,1.62.54,3.27.93,4.95,1.2.88.14,1.77.27,2.64.5.44.12.89.31,1.34.38.17.03.78-.17.78-.17.26.11.64-.2.47-.52Z"/>
      <g>
        <path class="cls-1" d="M171.59,358.58s-.05,0,0,0h0Z"/>
        <path class="cls-1" d="M171.91,356.62c-.94-.41-2.01-.5-3-.68-.98-.18-1.95-.37-2.93-.52-.98-.16-1.96-.32-2.94-.46-.5-.07-1.01-.13-1.52-.18-.17-.01-.4-.07-.57-.04-.03-.01-.04-.01-.05-.01,0,0,0-.02,0-.03-.52-.68-1.17.33-.77.97.31.49.93.6,1.42.75.67.19,1.35.35,2.03.5,1.33.29,2.66.56,3.99.82,1.11.21,2.29.54,3.43.62.01.01.01.03.03.03.14.1.29.17.45.19.07.01.15,0,.22-.02-.05,0-.07.01-.09.01.05,0,.11-.01.15-.02.34-.02.61-.24.72-.6.05-.16.07-.31.05-.47-.04-.44-.23-.71-.6-.87Z"/>
      </g>
      <path class="cls-1" d="M155,361.33c-.04-.06-.12-.12-.15-.18.01.06.03.12.04.18-.02-.3-.21-.46-.43-.6.06.07.12.13.18.2-.2-.32-.51-.45-.83-.59-.24-.11-.49-.19-.74-.26-.25-.07-.51-.12-.76-.17-.24-.05-.53-.13-.78-.06-.03,0-.06,0-.08,0-.14,0-.29.08-.35.22-.1,0-.14.14-.05.2,0,0,0,.02,0,.03-.02.16.09.3.2.39-.1-.08.13.15.16.17.06.04.13.07.2.1.16.08.31.16.47.23.29.13.57.26.87.36.29.1.57.17.86.22.19.03.35.02.51.01.1,0,.19,0,.28-.05.06-.02.1-.06.14-.09.05,0,.1,0,.16-.03.1-.04.18-.18.11-.29Z"/>
      <path class="cls-1" d="M172.01,366.1c-.23-.45-.68-.84-1.09-1.05-.53-.26-1.08-.42-1.64-.59-.52-.16-1.04-.34-1.57-.42-.27-.04-.52-.07-.79-.07-.12,0-.26,0-.38.02-.15.03-.28.1-.43.09-.15-.01-.2.23-.08.31.13.08.21.24.33.35.08.08.17.15.27.22.21.16.43.31.67.43.51.28,1.06.47,1.59.67.5.19,1,.41,1.52.51.49.09,1.08.08,1.54-.17.1-.05.12-.2.07-.3Z"/>
      <path class="cls-7" d="M199.44,302.86c-4.05-.42,16.16,12.32,20.92,13.49,4.76,1.18,51.73,0,51.73,0,2.73-1.04-21.54-15.81-25.24-16.7-3.7-.89-47.41,3.21-47.41,3.21Z"/>
      <path class="cls-10" d="M235.38,344.36c-.13-2.41-.32-4.82-.51-7.22-.2-2.44-.23-5.04-1.15-7.32-.78-1.92-3.56-2.23-4.23,0-.71,2.37-.57,4.87-.6,7.32-.02,2.41-.08,4.82-.1,7.22-.04,4.82-.22,9.63-.28,14.45-.05,4.82-.17,9.64-.34,14.45-.18,4.81-.58,9.63-.69,14.44-.06,2.37,2.17,4.15,4.43,3.84,2.02-.27,3.34-1.95,3.35-3.87l.04.02c.4-4.78.41-9.64.51-14.44.1-4.82.14-9.63.12-14.45-.02-4.82-.3-9.64-.56-14.45Z"/>
      <path class="cls-10" d="M248.34,356.85c-.15-4.97-.4-9.93-.7-14.89-.15-2.56-.31-5.14-.58-7.69-.14-1.29-.24-2.78-.65-4.02-.46-1.4-2.02-2.3-3.4-1.58-1.44.75-1.48,2.24-1.65,3.67-.15,1.28-.23,2.55-.28,3.84-.09,2.4-.19,4.8-.23,7.21-.09,4.81-.13,9.61-.08,14.41.09,9.18.19,18.36.35,27.54-.28.54-.45,1.14-.42,1.79.09,2.11,1.76,4.08,4.01,4.01.15,0,.3-.01.45-.02,2.13-.07,4.05-1.78,4.01-4.01-.21-10.09-.5-20.18-.8-30.27Z"/>
      <path class="cls-10" d="M464.4,341.23c-.05-2.25-.11-4.5-.16-6.76-.05-2.21.29-5.66-1.4-7.3-.89-.86-2.12-.75-3.03,0-1.03.85-1.18,2.16-1.38,3.4-.19,1.22-.35,2.44-.48,3.66-.25,2.33-.49,4.67-.74,7-.47,4.49-.71,9-.96,13.51-.48,8.78-.94,17.57-1.33,26.35-.17.76-.09,1.51.1,2.28.49,2.06,2.66,3.32,4.67,3.05,2.13-.29,3.6-2.04,3.69-4.18.36-9.17.62-18.34.87-27.51.12-4.5.25-9.01.15-13.51Z"/>
      <path class="cls-10" d="M477.16,355.89c-.04-4.9-.15-9.8-.34-14.69-.09-2.48-.19-4.96-.22-7.45-.02-2.51.27-5.17-.22-7.65-.22-1.11-1.43-1.91-2.51-1.91-1.25,0-2.06.84-2.51,1.91-.97,2.31-1.01,5.19-1.3,7.65-.29,2.48-.53,4.96-.71,7.45-.35,4.81-.38,9.64-.43,14.46-.06,4.81-.2,9.61-.49,14.41-.15,2.47-.35,4.93-.64,7.39-.04.31-.07.61-.11.92-.07.53-.08.61-.03.25-.09.61-.18,1.23-.28,1.84-.32,1.97-.69,3.54.3,5.41,1.26,2.37,4.36,2.4,6.19.8,1.35-1.18,1.53-2.75,1.78-4.4.22-1.45.42-2.9.6-4.35.3-2.45.52-4.92.67-7.39.31-4.87.29-9.77.25-14.64Z"/>
      <path class="cls-10" d="M515.45,353.05c-.04-.55-.11-1.1-.22-1.65-.77-3.7-3.56-6.67-7.03-8-3.18-1.22-7-.48-9.71,1.5-2.74,2-4.78,4.82-5.56,8.16-.77,3.29-.44,6.6.96,9.67,2.48,5.43,9.43,8.28,15.02,6.15,3.28-1.25,5.89-3.72,6.92-7.16.81-2.74.45-5.93-.37-8.68Z"/>
    </g>
    <path class="cls-19" d="M208.06,580.79c-5.14,1.23-10.58.14-15.98,1.11-6.99,1.26-13.96,4.03-20.29,7.19-10.04,5.01-18.03,13.77-11.49,25.13,12.08,20.97,53.51,18.47,73.94,18.69,29.17.32,58.72,3.93,85.74-8.46,8.21-3.76,20.38-12.76,22.54-22.27,3.19-14.09-15.68-20.77-26.41-23.66-23.4-6.31-48.61-3.16-72.25-1.51-11.34.79-22.36-1.66-33.23,2.94-.84.36-1.7.63-2.56.83Z"/>
    <path class="cls-19" d="M365.22,573.29c-19.65,4.39-35.15,12.48-32.43,26.6,3.17,16.47,29.45,17.14,42.19,16.51,33.87-1.68,61.92-6.87,93.6,8.99,23.26,11.64,63.17,36.43,88.1,12.28,27.22-26.37-40.37-43.05-56.91-45.33-11.21-1.54-24.55-2.4-34.85-8.01-10.74-5.85-20.87-12.18-33.21-14.49-9.11-1.71-41.23-2.2-66.49,3.44Z"/>
    <g>
      <path class="cls-14" d="M456.2,482.36c-1.55.22-2.99.96-4.45,1.51-1.47.56-2.95,1.09-4.44,1.6-.05.02-.1.03-.14.05.07-.13.14-.25.2-.39.1-.28-.2-.51-.45-.45-1.7.38-3.17,1.35-4.94,1.5-1.78.16-3.52-.25-5.03-1.23-.58-.38-1.15-.01-1.36.51-.94-.61-1.83-1.34-2.66-2.02-1.92-1.56-3.73-3.26-5.43-5.05-.71-.79-1.43-1.58-2.14-2.37-.72-.8-1.86.37-1.17,1.17.71.83,1.45,1.64,2.2,2.43,1.09,1.2,2.17,2.4,3.26,3.61,1.59,1.75,3.09,3.74,4.99,5.18.79.6,1.69,1.07,2.68,1.23,1.21.18,2.35-.19,3.49-.54,2.51-.76,5-1.59,7.47-2.48,1.43-.52,2.86-1.06,4.27-1.62,1.36-.54,2.8-.99,3.97-1.89.38-.29.16-.82-.32-.76Z"/>
      <path class="cls-14" d="M474.44,469.27c-.24.57-.53,1.09-.85,1.59-.24-.29-.65-.45-1.02-.21-.01,0-.03.02-.04.03-.18-.38-.62-.63-1.05-.33-7.39,4.94-14.91,9.68-22.56,14.21-.78.46-.25,1.59.6,1.41,5.51-1.13,10.55-3.68,15.33-6.57,2.21-1.34,4.46-2.67,6.5-4.26,1.8-1.41,3.45-3.21,3.96-5.49.11-.49-.64-.88-.86-.36Z"/>
      <path class="cls-9" d="M524.3,619.06c-2.08,3.25-2.09,8.27,1.75,11.23,3.83,2.96,25.41,1.83,30.14.07,4.73-1.76-1.16-11.53-19.18-11.87l-7.09-1.2-5.62,1.76Z"/>
      <path class="cls-14" d="M514.62,592.14s7.92,25.73,10.57,28.69c2.65,2.96,9.75,1.8,11.83-2.34,2.08-4.13-1.71-28.08-3.77-31.33-2.06-3.26-17.15,2.91-18.63,4.98Z"/>
      <path class="cls-9" d="M361.05,549.23s-8.24,37.36,19.53,42.89c43.72,8.7,106.72-37.67,110.19-38.44,3.48-.77,21.18,39.35,23.25,41.72,2.06,2.37,21-5.86,21.88-7.04.89-1.18-2.49-70.93-20.79-82.2-18.3-11.27-81.02,19.61-81.02,19.61,0,0-38.75,14.98-39.93,14.98-1.18,0-33.12,8.49-33.12,8.49Z"/>
      <path class="cls-9" d="M504.21,626.12c-2.35,3.05-2.8,8.05.76,11.34s25.15,4.05,30.02,2.71-.14-11.58-18.07-13.5l-6.96-1.82-5.75,1.26Z"/>
      <path class="cls-14" d="M496.91,598.46s5.63,26.32,8.02,29.51c2.38,3.18,9.55,2.64,11.99-1.29,2.43-3.93.76-28.12-1.01-31.54s-17.34,1.4-18.99,3.33Z"/>
      <path class="cls-9" d="M347.69,542.26s-6.16,38.61,19.83,49.86,105.48-33.61,109.01-34.07c3.53-.46,17.66,41.06,19.5,43.6,1.85,2.54,21.43-4,22.42-5.1.99-1.1,3.73-70.88-13.51-83.71-17.24-12.83-82.42,12.44-82.42,12.44,0,0-39.91,11.53-41.09,11.42-1.18-.11-33.73,5.56-33.73,5.56Z"/>
      <path class="cls-6" d="M401.56,333.49c-31.83-3.37-46.62,23.39-44.39,41.39,2.23,18-14.51,25.99-11.21,38.75,3.3,12.76-24.31,19.47-7.73,42.92,16.58,23.45,60.75,33.67,83.48,15.25,22.73-18.42,13.06-39.47,8.59-45.81-4.47-6.34,3.14-24.94-1.73-33.39-4.87-8.45,5.31-29.19-.77-37.46-6.08-8.26-7.13-19.63-26.23-21.66Z"/>
      <path class="cls-14" d="M335.85,466.42s-2.69,16.67-.3,26.38c2.39,9.71,18.46,5.82,19.43,5.02.96-.8,9.41-8.94,8.23-12.31-1.18-3.37,4.81-10.54.47-11.83s-4.84-2.22-8.22-4.3c-3.37-2.08-19.61-2.96-19.61-2.96Z"/>
      <path class="cls-4" d="M371.26,417.06c-14.79,2.82-21.77,9.94-27.17,17.17-5.01,6.7-12.95,35.03-12.95,35.03,0,0,13.46,8.63,25.34,8.52,0,0-2.22,41.04-8.79,64.48,0,0,53.73,9.6,74.82-16.98,0,0-4.61-34.72-.06-51.93s4.04-41.47,4.42-42.33c.37-.86-9.45-3.82-14.72-7.86-5.27-4.04-21.94-3.46-22.82-3.54-.88-.08-18.07-2.56-18.07-2.56Z"/>
      <path class="cls-21" d="M417.88,425.46l1.41-5.81s20.9,1.89,35.62,9.74c0,0,14.34-7.72,21.54-8.56l3.42,4.88s-14.22,16.22-15.43,16.41c-1.2.19-17.79-.12-20.33-1.54-2.54-1.42-26.23-15.13-26.23-15.13Z"/>
      <path class="cls-9" d="M415.02,424.31s-10.08,52.5-11.23,55.36c0,0,30.31,2.74,42.39,10.35,0,0,13.65-12.52,22.52-16.07l13.48-50.71s-19.39,7.74-26.69,13.02c0,0-31.74-13.25-40.46-11.96Z"/>
      <path class="cls-14" d="M383.59,404.27s-2.16,8.84-4.17,10.01c-2,1.17-8.16,2.79-8.16,2.79,0,0,7.77,17.95,21.07,18.55,13.3.61,19.82-12.45,19.82-12.45,0,0-2.46-2.3-5.27-4.04-2.81-1.74-3.11-11.56-3.11-11.56l-20.18-3.31Z"/>
      <path class="cls-14" d="M335.54,492.8s45.12-12.72,60.1-24.84c6.69-5.41,12.59-11.54,16.1-13.98s4.84-3.22,6.31-4.18c1.48-.96,3.77.93,3.02,2.65,0,0,5.03.16,3.48,4.17,0,0,2.76,4.16-.53,5.89,0,0,1.93,1.66-1.01,4.66s-7.13,6.45-13.48,11.25-11.2,9.08-25.01,17.33c-13.8,8.25-19.34,13.68-32.15,14.31s-16.84-17.25-16.84-17.25Z"/>
      <path class="cls-14" d="M475.42,459.49c-2.81-4.86-9.4-8.12-11.25-7.78-1.85.34-1.06,3.2-1.06,3.2,0,0-3.24,1.68-2.06,3.65,0,0-1.54,3.56.03,4.64,0,0-1.87,1.48.31,3.22,2.18,1.74,8.16,5.68,11.66,5.52,3.5-.16,4.37-8.99,2.37-12.45Z"/>
      <path class="cls-13" d="M404.7,414.88c-.36-1.5-.59-3.12-.73-4.46l-5.5-3.72-14.88-2.44s-1.53,6.24-3.21,8.93c6.61,5.18,17.59,5.58,24.32,1.69Z"/>
      <path class="cls-14" d="M373.47,375.79s-6.82-.99-7.2,5.95c-.37,6.94,6.01,6.89,6.01,6.89,0,0,6.29,27.03,26.18,26.37,19.89-.65,22.36-36.83,22.36-36.83,0,0-15.73-12.36-18.32-20.5,0,0-14.14,15.24-29.04,18.12Z"/>
      <g>
        <path class="cls-13" d="M369.38,378.96s-.02-.06-.04-.08c0,0-.01-.02-.02-.03,0,0-.02-.02-.03-.03-.03-.03-.05-.04-.1-.05,0,0,0,0,0,0-.02,0-.05,0-.07,0,0,0,0,0-.01,0-.03,0-.06,0-.09.02-.03,0-.05.02-.07.05-.01.02-.02.03-.04.05-.02.03-.03.05-.03.09,0,.02,0,.04,0,.06,0,.03.01.06.03.09,0,.01.02.01.03.03,0,0,0,0,0,0h0s0,0,0,0c0,0,0,0,0,0l-.02-.05s.02.04.04.06c.03.03.05.06.09.07-.01,0-.02-.01-.04-.02-.01,0-.02-.02-.04-.03,0,0,0,0,0,0,0,0,0,0,0,0h0s0,0,0,0c0,0,0,.01.01.02,0,0,0,0,0,0,0,0,0,0,0,0,0,0,0,0,0,0,0,0,0,0,.01,0,0,0,.01.01.02.02,0,0-.02-.01-.02-.02.03.03.05.04.09.05.02,0,.04,0,.06,0,.03,0,.06,0,.09-.02.02,0,.04-.02.05-.03.02-.02.04-.04.06-.06.03-.03.03-.08.03-.12,0,0,0,0,0-.01,0-.02,0-.05,0-.07Z"/>
        <path class="cls-13" d="M368.95,379.15s0,0-.01,0c0,.01.02.02.02.03,0,0,0,0,0,0,0,0,0-.02-.01-.02Z"/>
      </g>
      <g>
        <path class="cls-13" d="M372.8,381.11c-.63-.7-1.91-1.58-2.85-.99-.15.1-.2.32-.06.45.22.21.43.34.7.48.12.07.24.14.35.22.06.04.13.08.19.13,0,0,0,0,0,0,.03.02.06.05.09.08.11.09.21.19.3.3.04.05.09.1.13.15,0,.01.07.1.08.12.08.12.15.24.21.37.01.02.06.12.07.15,0,.02.02.05.03.08-.32-.01-.64.05-.91.22-1.25.81-.89,3.3.76,3.33.64.01,1.15-.38,1.51-.87.32-.43.44-.96.46-1.49.03-1.02-.4-1.98-1.07-2.73Z"/>
        <path class="cls-13" d="M370.76,383.41s0,0,0,0c0,0,0,0,0,0,0,0,0,0,0-.01Z"/>
      </g>
      <path class="cls-14" d="M408.97,450.18c-.77,1.43-1.5,2.88-2.22,4.34-.09.08-.17.18-.21.33-.02.09-.05.17-.08.26-1.19,2.45-2.3,4.93-3.34,7.45,0,0,0,0,0,0h0c-.02.05-.04.1-.07.16-.3.72.81,1.08,1.2.5.45-.66.86-1.34,1.25-2.04.43-.29.77-.7,1.04-1.16.11-.16.22-.32.32-.49-.06.69.99.99,1.12.27.52-3.08,1.23-6.13,2.11-9.13.19-.66-.79-1.09-1.12-.47Z"/>
      <path class="cls-13" d="M420.25,452.48c-.44.11-.79.5-1.12.81-.33.32-.65.66-.98.99-.7.69-1.41,1.37-2.13,2.04-.7.64-1.4,1.28-2.12,1.89-.31.26-.64.5-.96.75-.33.26-.7.58-1.12.67-.14.03-.18.26-.04.32.85.38,1.67.31,2.44-.26.83-.61,1.58-1.34,2.33-2.04.76-.71,1.5-1.43,2.23-2.17.38-.39.77-.77,1.14-1.18.33-.36.78-.79.88-1.28.06-.33-.2-.63-.54-.54Z"/>
      <path class="cls-13" d="M423.54,457.09c0-.09-.07-.13-.16-.12-.17.03-.31,0-.48.09-.21.11-.39.3-.56.45-.37.34-.71.71-1.07,1.06-.74.72-1.48,1.43-2.28,2.09-.77.64-1.59,1.21-2.41,1.79-.79.55-1.67,1.07-2.19,1.91-.05.09.02.19.11.19,1.02.04,1.95-.51,2.78-1.05.89-.57,1.73-1.23,2.54-1.91.79-.66,1.56-1.35,2.26-2.11.36-.39.72-.78,1.02-1.2.14-.2.3-.4.39-.63.09-.22.04-.36.03-.57Z"/>
      <path class="cls-13" d="M423.42,462.51c-.76.13-1.38.83-1.94,1.32-.61.53-1.23,1.05-1.85,1.55-.61.49-1.23.97-1.85,1.45-.32.25-.64.48-.91.78-.28.3-.44.64-.68.97-.08.12.06.28.18.24.38-.11.74-.15,1.1-.32.37-.17.69-.4,1.02-.64.67-.5,1.33-1.02,1.97-1.55.62-.51,1.23-1.04,1.83-1.57.57-.5,1.33-1.06,1.51-1.84.06-.25-.15-.43-.39-.39Z"/>
      <path class="cls-13" d="M363.45,484.02c-2.81.43-5.49,1.22-8.23,1.95-1.36.36-2.73.69-4.1,1.02-.68.17-1.37.33-2.05.5-.55.14-1.08.23-1.52.6-.14.13-.05.34.1.39.54.2,1.12.06,1.68-.02.7-.1,1.4-.22,2.09-.36,1.43-.27,2.86-.61,4.27-.97,2.76-.69,5.37-1.5,7.86-2.88.15-.08.04-.27-.11-.25Z"/>
      <path class="cls-13" d="M471.4,458.29c-.66-.5-1.4-.86-2.15-1.2-.89-.4-1.8-.77-2.69-1.16-.48-.2-.96-.4-1.44-.59-.49-.19-.98-.44-1.51-.43-.31,0-.43.36-.24.58.32.36.76.54,1.18.75.45.22.89.44,1.34.65.87.4,1.75.79,2.61,1.19.68.32,1.36.66,1.99,1.08.52.35,1.13,1.18,1.79,1.21.14,0,.24-.1.29-.22.26-.73-.67-1.5-1.17-1.87Z"/>
      <path class="cls-13" d="M470.33,463.66c-.42-.74-1.34-1.16-2.04-1.58l-2.34-1.43c-.76-.46-1.51-.95-2.29-1.36-.33-.17-.66-.31-1.03-.2-.33.1-.6.42-.46.78.05.13.17.25.32.24.1,0,.22-.05.31-.04.15.02.32.18.44.26.29.21.59.4.89.59.64.41,1.29.82,1.93,1.23s1.29.82,1.93,1.23c.62.39,1.25.87,2,.92.33.02.51-.37.36-.63Z"/>
      <path class="cls-13" d="M467.29,465.14c-.57-.42-1.16-.8-1.76-1.16-.59-.35-1.2-.66-1.82-.95-.3-.14-.61-.26-.92-.37-.17-.06-.33-.11-.5-.14-.17-.03-.46.06-.61.01-.08-.03-.14.1-.06.14.14.07.23.31.36.42.13.09.25.19.38.27.28.17.57.34.86.5.6.33,1.18.69,1.76,1.05.57.35,1.12.72,1.66,1.1.45.32,1.09.79,1.67.71.06,0,.12-.09.12-.15-.04-.6-.7-1.11-1.14-1.43Z"/>
      <path class="cls-14" d="M476.55,457.33c-.13-.74-.35-1.46-.64-2.15-.17-.39-.36-.97-.72-1.27.01-.54-.82-.71-1.03-.13-.32.89-.62,1.78-.91,2.68l-.43,1.29c-.08.23-.15.47-.23.7-.04.12-.09.23-.12.34-.09.25.02.58.31.63.03,0,.05,0,.08.02.25.09.51-.06.65-.26.09-.13.14-.28.19-.43.06.31.15.63.27.93.12.3.35.53.69.53.04,0,.08-.01.12-.02.11.61.22,1.21.34,1.82.13.66,1.15.62,1.3,0,.37-1.54.42-3.11.14-4.67Z"/>
      <path class="cls-1" d="M412.89,422.96c-.07-.31-.41-.37-.65-.27-.79.34-1.04,1.06-1.47,1.77-.45.73-.92,1.45-1.42,2.15-.95,1.33-2.04,2.57-3.25,3.67-2.53,2.31-5.65,3.87-9.06,4.31-7.08.91-13.84-2.35-18.56-7.49-2.63-2.86-4.68-6.21-6.29-9.74-.08-.17-.34-.33-.53-.3-.08.01-.23-.03-.3.05-.04.05-.08.1-.14.13-.23.18-.2.51-.1.74,2.94,6.69,7.66,12.99,14.42,16.17,6.72,3.16,14.61,3,20.57-1.69,1.6-1.26,2.99-2.76,4.21-4.38.62-.82,1.2-1.68,1.72-2.57.48-.83,1.06-1.57.84-2.55Z"/>
      <path class="cls-1" d="M362.16,449.9c-1.13,1.55-1.67,3.51-2.25,5.32-.61,1.9-1.16,3.82-1.62,5.77-.89,3.75-1.54,7.56-1.95,11.39-.1.97-.19,1.94-.26,2.91-.05.65-.39,2,.23,2.48,1.32,1.03,1.25-2.75,1.29-3.25.32-3.92.89-7.82,1.71-11.66.47-2.2,1-4.4,1.6-6.57.57-2.06,1.45-4.15,1.62-6.29.02-.21-.25-.23-.35-.1Z"/>
      <path class="cls-1" d="M471.64,423.36c-.36-.28-.75-.13-1.16,0-.61.2-1.21.48-1.8.73-1.22.52-2.44,1.06-3.62,1.66-1.15.58-2.29,1.17-3.41,1.82-.59.34-1.18.69-1.75,1.07-.52.35-.96.76-1.45,1.15-.05.04,0,.15.07.12,1.13-.47,2.24-.95,3.34-1.5,1.16-.57,2.31-1.15,3.48-1.69,1.17-.54,2.34-1.08,3.52-1.59.59-.25,1.2-.48,1.79-.74.4-.18.96-.37,1.04-.85,0-.06,0-.14-.05-.18Z"/>
      <path class="cls-1" d="M477.26,424.08c-3.4,1.16-6.87,1.91-10.18,3.34-3.27,1.41-6.41,3.13-8.98,5.62-.08.08.02.2.12.15,3.19-1.72,6.31-3.6,9.66-5,1.61-.67,3.25-1.25,4.92-1.73,1.68-.49,3.26-.95,4.61-2.12.11-.1,0-.29-.14-.25Z"/>
      <path class="cls-1" d="M443.6,426.4c-.63-.8-1.69-1.06-2.63-1.34-1.01-.3-2.03-.59-3.05-.83-1.02-.25-2.07-.46-3.11-.62-.95-.14-2-.34-2.94-.07-.04.01-.05.07-.01.09.85.55,1.95.71,2.91.93.99.23,1.98.47,2.97.73.99.26,1.97.53,2.94.84.93.29,1.88.71,2.87.49.1-.02.11-.14.05-.2Z"/>
      <path class="cls-1" d="M451.73,431.99c-.85-.73-2.01-1.12-3.02-1.56-1.05-.46-2.11-.91-3.18-1.33-2.23-.88-4.5-1.67-6.8-2.36-2.3-.69-4.63-1.3-6.98-1.77-1.13-.23-2.27-.42-3.4-.59-1.07-.17-2.18-.32-3.26-.14-.08.01-.1.15-.02.19,1,.47,2.12.65,3.19.86,1.08.21,2.15.45,3.22.69,2.29.52,4.57,1.1,6.82,1.78,2.2.67,4.38,1.42,6.52,2.26,1.12.44,2.23.9,3.33,1.38,1.02.45,2.07,1.11,3.16,1.33.39.08.78-.42.42-.73Z"/>
      <path class="cls-1" d="M451.1,429.51c-.18-.08-.37-.13-.55-.21-.15-.07-.31-.14-.47-.2-.34-.14-.69-.27-1.03-.4-.34-.13-.69-.25-1.03-.36-.36-.12-.74-.1-1.09-.25-.06-.03-.14.05-.08.1.29.27.48.6.81.83.33.24.73.43,1.12.55.74.24,1.56.31,2.33.17.13-.02.1-.2,0-.24Z"/>
      <path class="cls-17" d="M425.4,378.94c-.58-.35-1.3-.4-1.94-.63-.67-.24-1.31-.59-1.92-.97-1.17-.73-2.23-1.61-3.27-2.51-2.17-1.86-4.23-3.84-6.17-5.93-1.96-2.12-3.86-4.28-5.56-6.61-.83-1.14-1.6-2.31-2.41-3.46-.11-.16-.5-.84-.92-1.37.34-.57.67-1.14.96-1.73.38-.77-.69-1.41-1.16-.68-3.25,5.06-7.77,9.24-12.92,12.31-5.79,3.46-12.24,5.6-18.71,7.41-1.76.49-3.58.97-5.08,2.07-.7.52-1.33,1.09-1.93,1.73-.61.65-1,1.42-1.46,2.18-.12.2.11.4.3.3.66-.34,1.37-.64,1.95-1.1.63-.5,1.27-1.01,1.95-1.44,1.47-.94,3.11-1.41,4.78-1.88,3.33-.92,6.64-1.94,9.88-3.17,5.92-2.26,11.6-5.29,16.28-9.62,1.68-1.55,3.16-3.31,4.43-5.22.31.56.68,1.09.82,1.34.76,1.29,1.62,2.52,2.48,3.74,1.72,2.42,3.53,4.78,5.54,6.97,2.03,2.2,4.2,4.28,6.49,6.2,1.09.91,2.22,1.8,3.47,2.49,1.07.58,2.67,1.42,3.91,1.04.66-.2.78-1.1.19-1.46Z"/>
      <path class="cls-17" d="M361.6,384.53c-.05-.3-.57-.31-.61,0-.53,3.63-2.23,6.67-4.3,9.64-2.04,2.92-4.27,5.84-5.24,9.32-.63,2.28-.62,4.66-.72,7-.09,2.18-.36,4.26-1.11,6.32-1.27,3.51-3.5,6.59-5.5,9.71-1.15,1.79-2.26,3.61-3.13,5.55-.8,1.79-1.69,3.82-1.03,5.78.05.16.26.19.35.05.98-1.55,1.3-3.36,2.04-5.03.77-1.72,1.73-3.35,2.74-4.94,2.02-3.2,4.26-6.3,5.71-9.82.77-1.86,1.22-3.79,1.4-5.8.2-2.33.06-4.69.45-7.01.64-3.79,2.95-6.91,5.07-10,2.15-3.14,4.58-6.78,3.9-10.77Z"/>
      <path class="cls-17" d="M365.3,388.68c-.43.26-.39.83-.42,1.28-.05.7-.1,1.37-.27,2.06-.34,1.45-.98,2.8-1.72,4.08-1.35,2.33-3.08,4.42-4.34,6.81-1.33,2.53-1.78,5.04-1.69,7.89.05,1.46.15,2.94-.17,4.37-.26,1.17-.99,2.21-1.2,3.38-.02.12.05.28.2.27,1.97-.22,2.49-2.86,2.67-4.44.28-2.54-.32-5.11.3-7.62,1.13-4.57,4.86-8,6.57-12.34.47-1.2.8-2.46.85-3.75.01-.27-.05-2.42-.79-1.98Z"/>
      <path class="cls-17" d="M369.79,393.75s-.09-.03-.13,0c-.67.48-.55,1.81-.67,2.53-.19,1.18-.51,2.32-1.01,3.41-.92,2.01-2.45,3.65-3.5,5.58-1.1,2.05-1.42,4.34-1.38,6.64.02.86.04,1.82.38,2.63.34.79.97,1.18,1.75,1.46.13.05.26-.13.18-.24-.44-.63-.5-1.64-.63-2.39-.16-.96-.13-1.98-.08-2.95.13-2.29.92-4.21,2.19-6.1,1.14-1.69,2.29-3.31,2.91-5.27.31-.97.52-2,.57-3.02.03-.69.13-1.91-.59-2.28Z"/>
      <path class="cls-17" d="M374.53,401.87c-.08-.17-.35-.51-.58-.41-.47.21-.56.56-.65,1.06-.11.61-.22,1.21-.44,1.79-.41,1.09-1.04,2.09-1.47,3.18-.44,1.1-.73,2.24-.89,3.41-.08.57-.17,1.16-.13,1.74.04.58.27.96.59,1.43.08.12.28.14.35,0,.27-.52.48-.94.54-1.54.07-.63.09-1.26.2-1.88.22-1.24.6-2.45,1.14-3.58.52-1.09,1.07-2.18,1.3-3.37.11-.56.26-1.27.02-1.82Z"/>
      <path class="cls-17" d="M426.04,401.88c-.68-2.77-1.6-5.41-1.89-8.27-.14-1.42-.17-2.84-.13-4.27.04-1.52.28-3.02.31-4.53.01-.52-.68-.55-.85-.12-1,2.54-1.03,5.62-.87,8.31.16,2.77.77,5.39,1.54,8.04.38,1.31.68,2.62.67,3.99-.01,1.44-.31,2.86-.68,4.25-.35,1.32-.78,2.62-1.31,3.89-.26.63-.56,1.25-.78,1.89-.22.63-.31,1.3-.46,1.95-.05.22.22.38.38.22,1.04-.99,1.73-1.92,2.29-3.25.55-1.29,1.02-2.62,1.39-3.97.74-2.69,1.07-5.38.4-8.12Z"/>
      <path class="cls-17" d="M421.34,404.77c-.18-1.14-.43-3.07-1.39-3.84-.17-.14-.49-.12-.54.14-.1.54.06,1.11.17,1.65.14.66.27,1.32.33,1.99.13,1.35.13,2.69,0,4.04-.14,1.31-.45,2.6-.9,3.84-.43,1.21-.91,2.33-1.04,3.62-.01.13.15.21.25.15,2.36-1.42,2.97-4.84,3.24-7.37.15-1.4.1-2.84-.12-4.23Z"/>
      <path class="cls-17" d="M415.51,412.25c-.05-.45-.11-.91-.26-1.34-.07-.18-.14-.35-.24-.52-.11-.18-.21-.21-.35-.34-.1-.09-.23-.05-.28.07-.05.13-.13.19-.16.34-.04.2-.05.39-.06.59-.02.4,0,.79,0,1.19,0,.78-.05,1.57-.19,2.34-.14.79-.38,1.55-.62,2.31-.24.75-.32,1.53-.53,2.28-.04.13.12.2.21.12.68-.56,1.3-1.1,1.67-1.92.37-.81.59-1.68.73-2.56.13-.86.18-1.72.09-2.59Z"/>
      <path class="cls-17" d="M411.17,414.35c-.06-.19-.12-.38-.19-.56.02.06-.02-.05-.02-.06-.04-.09-.08-.14-.13-.22.02.04,0-.02,0-.03-.02-.03-.05-.04-.07-.06-.02-.03-.03-.07-.06-.1,0,0,0,0,0-.01.02-.11-.14-.2-.2-.08,0,0,0,.02-.01.02-.08.04-.16.09-.21.17-.11.1-.19.23-.23.37-.04.17-.06.35-.04.52.02.2.03.39.07.59.01.08.03.15.04.23,0,0,0,0,0,0,0,.03,0,.07,0,.07,0,.06,0,.11,0,.17,0,.03,0,.06,0,.08,0,.03.01.1,0,.02-.01-.07,0-.01,0,.02,0,.05-.02.09-.02.14,0,.02,0,.03,0,.04,0,0,0,0,0,0,0,0-.01.07-.02.08-.02.1-.05.2-.08.29-.02.08-.04.16-.04.24,0,.03,0,.05,0,.08-.02.02-.04.04-.05.07-.02.05,0,.13.04.16.07.06.14.07.22.07.14.06.27.09.42.04.2-.06.36-.22.48-.39.19-.28.26-.63.26-.96,0-.34-.07-.69-.17-1.02Z"/>
      <path class="cls-17" d="M400.77,347.65c-.03-.21-.29-.39-.46-.19-1,1.17-1.59,2.56-2.34,3.89-.76,1.36-1.64,2.65-2.66,3.84-2.09,2.45-4.55,4.47-7.34,6.08-3.21,1.85-6.68,3.18-10.22,4.24-1.69.5-3.39.98-5.11,1.39-1.81.44-3.64.79-5.38,1.47-1.66.64-3.23,1.56-4.41,2.91-.98,1.12-1.89,2.67-1.45,4.18.06.2.35.25.46.06.72-1.35,1.21-2.67,2.35-3.76,1.26-1.21,2.88-1.93,4.53-2.45,3.46-1.09,7.06-1.65,10.53-2.74,6.26-1.96,12.51-4.98,17.01-9.89,1.18-1.29,2.26-2.7,3.13-4.21.85-1.49,1.58-3.09,1.36-4.83Z"/>
      <path class="cls-17" d="M396.92,341.42c-.08-.1-.29-.08-.35.04-.6,1.36-1.61,2.59-2.5,3.77-.89,1.18-1.86,2.28-2.87,3.35-1.99,2.11-4.23,3.93-6.66,5.52-2.42,1.59-5.01,2.92-7.73,3.92-3.13,1.15-6.46,1.71-9.54,3-1.36.57-2.64,1.31-3.77,2.26-.99.84-2.34,2.15-2.28,3.55,0,.11.14.21.24.14.5-.38.82-.89,1.23-1.37.48-.56,1-1.1,1.57-1.56,1.23-.99,2.68-1.72,4.16-2.27,3.13-1.16,6.45-1.67,9.58-2.83,5.53-2.05,10.59-5.37,14.68-9.62,1.12-1.16,2.15-2.4,3.11-3.69.84-1.13,2.23-2.84,1.13-4.22Z"/>
      <path class="cls-17" d="M394.01,336.12c-.43.39-.88.74-1.25,1.19-.39.47-.69,1.01-1.04,1.51-.7,1-1.46,1.95-2.28,2.85-1.65,1.81-3.52,3.43-5.57,4.78-2.07,1.37-4.28,2.45-6.61,3.31-2.19.81-4.42,1.48-6.57,2.4-2.23.96-4.81,2.22-5.93,4.49-.1.2.11.47.33.33,1.95-1.27,3.74-2.65,5.9-3.58,2.23-.96,4.57-1.65,6.85-2.46,4.62-1.65,8.77-4.23,12.16-7.8.92-.97,1.77-2,2.56-3.08.42-.58.88-1.17,1.2-1.81.32-.62.42-1.27.53-1.96.03-.16-.15-.28-.28-.16Z"/>
      <path class="cls-17" d="M424.57,368.52c-4.15-2.24-8.07-4.7-11.21-8.27-1.5-1.7-2.78-3.59-3.85-5.6-.54-1.02-1.02-2.07-1.43-3.14-.32-.82-.5-2.19-1.24-2.72-.12-.09-.36-.03-.42.11-.4.89.29,2.29.61,3.16.42,1.14.9,2.26,1.45,3.34,1.08,2.13,2.42,4.11,3.95,5.95,1.54,1.84,3.28,3.49,5.22,4.9,1.85,1.34,4.45,3.36,6.86,2.6.14-.04.18-.24.04-.32Z"/>
      <path class="cls-17" d="M427.28,361.61c-1.07-.07-1.95-.84-2.8-1.44-.87-.61-1.72-1.24-2.56-1.9-1.66-1.31-3.26-2.71-4.73-4.24-1.43-1.5-2.75-3.11-3.83-4.88-.53-.86-1-1.75-1.41-2.67-.4-.91-.64-1.84-1.26-2.63-.08-.1-.27-.05-.29.08-.16,1.08.25,2.07.66,3.07.43,1.06.93,2.08,1.51,3.06,1.18,1.99,2.62,3.81,4.22,5.47,1.64,1.7,3.43,3.22,5.3,4.65,1.14.87,3.99,3.57,5.35,1.74.1-.13-.04-.29-.17-.3Z"/>
      <path class="cls-17" d="M425.45,353.64c-.42-.43-.81-.87-1.28-1.24-.49-.38-1.03-.7-1.55-1.05-1.06-.71-2.08-1.47-3.01-2.34-.82-.76-1.55-1.59-2.18-2.52-.31-.45-.6-.92-.84-1.41-.12-.24-.24-.48-.37-.73-.15-.27-.44-.58-.54-.85-.04-.11-.24-.11-.22.03.03.29-.07.56-.03.84.04.29.1.57.2.85.2.56.46,1.1.74,1.61.58,1.05,1.38,2.01,2.23,2.86.94.95,2.01,1.76,3.11,2.52.54.37,1.08.74,1.65,1.05.61.33,1.26.49,1.92.7.19.06.32-.19.19-.32Z"/>
      <g>
        <path class="cls-6" d="M391.58,375c-.75-.39-1.58-.63-2.43-.65-.87-.02-1.71.2-2.49.56-.32.15-.62.34-.9.55-.42.32-.87.89-.8,1.46.05.46.33.78.82.82.18.01.37-.03.54-.09.03-.01.2-.08.26-.11-.08.03-.04.02.1-.04.06-.02.12-.05.18-.08.28-.16.53-.34.82-.48,0,0,0,0,.02,0,.08-.03.17-.06.25-.08.14-.04.27-.08.41-.1.04,0,.08-.01.12-.02,0,0,.12-.01.15-.01.16-.01.32-.01.48,0,.07,0,.14.01.2.01.15.03.3.06.45.1.15.04.29.09.44.14,0,0,0,0,0,0,.06.03.12.06.19.09.14.07.27.15.4.24.05.04.1.07.16.11,0,0,.02.02.06.05.36.29.79.56,1.28.53.38-.02.84-.27.9-.69.18-1.1-.71-1.83-1.6-2.29Z"/>
        <path class="cls-6" d="M384.76,377.14h0s.02,0,0,0Z"/>
      </g>
      <path class="cls-6" d="M389.77,382.98c-.01-.28-.09-.53-.25-.77-.13-.24-.31-.43-.53-.58-.2-.18-.43-.31-.7-.37-.18-.02-.37-.05-.55-.07-.37,0-.72.1-1.04.28-.45.29-.81.71-.95,1.24-.23.85-.36,1.74-.36,2.63-.01.29.05.55.18.8.08.26.23.48.43.67.19.2.41.35.67.43.25.13.52.19.8.18.18-.02.37-.05.55-.07.35-.1.66-.28.92-.54.11-.14.22-.28.33-.42.19-.33.28-.68.28-1.05,0-.25.04-.5.06-.76.04-.26.08-.51.11-.77.09-.28.1-.55.04-.82Z"/>
      <path class="cls-6" d="M411.17,385.78c-.01-.28-.09-.53-.25-.77-.13-.24-.31-.43-.53-.58-.2-.18-.43-.31-.7-.37-.18-.02-.37-.05-.55-.07-.37,0-.72.1-1.04.28-.45.29-.81.71-.95,1.24-.23.85-.36,1.74-.36,2.63-.01.29.05.56.18.8.08.26.23.48.43.67.19.2.41.35.67.43.25.13.52.19.8.18.18-.02.37-.05.55-.07.35-.1.66-.28.92-.54.11-.14.22-.28.33-.42.19-.33.28-.68.28-1.05,0-.25.04-.5.06-.76.04-.26.08-.51.11-.77.09-.27.1-.55.04-.82Z"/>
      <path class="cls-6" d="M414.16,378.99c-.26-.29-.57-.53-.88-.75-.58-.41-1.28-.7-1.98-.83-.78-.15-1.55-.15-2.33.03-.38.09-.76.24-1.11.41-.42.21-.73.49-.98.89-.43.69.28,1.6,1.05,1.37.21-.06.4-.11.6-.21.06-.03.11-.06.17-.09,0,0,.04-.02.08-.04.03-.01.1-.04.12-.05.07-.03.14-.05.22-.07.13-.04.27-.07.41-.1.04,0,.06-.02.08-.02.05,0,.1,0,.12,0,.15,0,.3-.01.46,0,.13,0,.25.02.38.03,0,0,0,0,0,0,0,0,0,0,0,0,.08.02.15.03.23.04.14.03.27.07.41.11.06.02.12.04.18.06.04.01.07.03.11.04.08.03.05.02-.09-.04.07-.02.31.15.37.19.12.07.24.15.35.22,0,0,0,0,0,0,0,0,0,0,0,0,.06.05.11.1.17.15.09.09.18.18.26.27.03.03.06.07.09.11.02.04.05.08.05.09.29.42.57.58,1.07.64.5.06.88-.38,1.04-.8.24-.62-.25-1.22-.64-1.65Z"/>
      <path class="cls-13" d="M402.17,391.27c-.41-.38-.95-.35-1.36,0-.03.02-.04.03-.04.04-.03.02-.06.05-.09.07-.09.06-.19.12-.29.17-.05.03-.1.05-.15.07-.02,0-.02,0-.03.02,0,0,0,0-.01,0-.11.03-.21.07-.32.1-.11.03-.21.05-.32.07-.05,0-.11.01-.16.01-.11,0-.22,0-.33,0-.05,0-.11-.01-.17,0-.01,0,0,0,0,0-.01,0,0,0-.02,0-.21-.04-.4-.1-.61-.17h0s-.1-.05-.14-.07c-.09-.05-.18-.1-.27-.16-.05-.03-.26-.2-.14-.09-.09-.08-.18-.15-.26-.24-.19-.2-.41-.31-.65-.43-.43-.22-1.1.04-1.05.6.04.41.13.75.41,1.06.21.24.45.44.71.62.46.34,1.02.59,1.58.7,1.35.27,2.67-.13,3.72-1.01.39-.33.36-1.03,0-1.36Z"/>
      <path class="cls-15" d="M384.43,388.57c-.36-.18-.75-.32-1.13-.39-1.34-.22-2.68-.01-3.85.73-.74.47-.85,1.54-.27,2.2,1.23,1.38,3.03,1.92,4.77,1.58,1.04-.21,2.13-.9,2.14-2.16,0-1.04-.81-1.65-1.66-1.96Z"/>
      <path class="cls-15" d="M414.62,391.77c-.36-.18-.75-.32-1.13-.39-1.34-.22-2.68-.01-3.85.73-.74.47-.85,1.54-.27,2.2,1.23,1.38,3.03,1.92,4.77,1.58,1.04-.21,2.13-.9,2.14-2.16,0-1.04-.81-1.65-1.66-1.96Z"/>
      <path class="cls-17" d="M478.26,559.68c-.25,0-.57-.66-.72-.85-.31-.42-.67-.79-1.18-.96-1.31-.43-2.8.51-3.95,1.04-2.84,1.29-5.6,2.74-8.33,4.25-5.47,3.03-10.81,6.29-16.43,9.06-11.36,5.6-23.49,9.45-35.6,13.07-3.62,1.08-7.24,2.14-10.88,3.16-1.77.5-3.53.98-5.3,1.47-1.87.52-3.77.97-5.57,1.72-.51.21-.53,1.17.15,1.08,3.24-.39,6.44-1.46,9.58-2.34,3.22-.9,6.44-1.81,9.65-2.75,6.19-1.81,12.36-3.7,18.46-5.79,5.9-2.02,11.74-4.27,17.41-6.88,5.66-2.61,11.03-5.72,16.44-8.79,3.06-1.74,6.14-3.44,9.32-4.97.77-.37,1.54-.73,2.32-1.08.58-.26,1.73-1.02,2.35-.64.45.28.64.92,1.07,1.24.42.31.87.41,1.38.28.73-.19.57-1.29-.18-1.3Z"/>
      <path class="cls-17" d="M519.87,570.17c-.34-8.52-1.01-17.03-1.76-25.52-.69-7.74-1.1-15.82-4.47-22.97-2.65-5.62-7.59-10.87-13.89-12.14-2.21-.45-4.48-.49-6.73-.58-2.28-.09-4.57-.13-6.85-.11-4.52.03-9.3.3-13.62,1.73-.53.18-.32.95.23.84,3.93-.84,7.81-1.31,11.83-1.35,3.94-.03,7.92.1,11.84.4,3.41.27,6.6,1.39,9.3,3.51,2.44,1.91,4.4,4.46,5.85,7.19,3.54,6.66,4.03,14.49,4.68,21.86.72,8.18,1.48,16.35,1.91,24.55.24,4.63.39,9.27.39,13.9,0,2.26-.03,4.52-.1,6.79-.07,2.36-.38,4.75-.24,7.1.04.6.95.79,1.09.15.45-2.06.45-4.18.55-6.28.1-2.15.17-4.31.19-6.46.05-4.2-.03-8.41-.2-12.61Z"/>
      <g>
        <path class="cls-15" d="M400.59,399.01c-.26-.34-.71-.42-1.09-.22-.08.04-.16.09-.24.14-.06.04-.16.07-.23.12-.04.01-.07.03-.11.04-.09.03-.18.05-.27.07-.04,0-.07.01-.11.02-.09,0-.17.01-.26.01-.09,0-.19,0-.28-.01h0s.04,0,.06.01c-.02,0-.05,0-.07-.01-.06,0-.04,0,0,0-.03,0-.05,0-.08-.01-.08-.02-.17-.04-.25-.06-.06-.02-.15-.06-.23-.08.04.02.07.04-.02,0,0,0-.01,0-.02,0,0,0-.02,0-.02,0,0,0,.01,0,.02,0-.03-.01-.06-.03-.09-.04-.09-.05-.18-.1-.26-.15-.03-.02-.13-.12-.04-.02.1.1,0,0-.03-.03-.11-.09-.21-.18-.33-.26,0,0,.01.01.01.02,0,0-.02-.02-.03-.03-.07-.05-.04-.03-.01,0-.03-.02-.06-.05-.07-.06-.09-.08-.18-.16-.29-.21-.2-.16-.48-.2-.71-.06-.22.13-.28.34-.28.57,0,.04,0,.08,0,.11,0,0,0,.01,0,.02,0,0,0,.02,0,.03.01.24.12.48.25.7.16.27.4.46.65.65.38.29.85.49,1.32.6.54.12,1.08.14,1.62.03.5-.1,1.08-.34,1.42-.73.28-.32.33-.76.07-1.11Z"/>
        <path class="cls-15" d="M396.64,398.49s0,0,0,0c0,0-.01-.01-.02-.02,0,0,0,0,.01,0,0,0,0,0,0,0Z"/>
        <path class="cls-15" d="M398.01,399.18s-.01,0-.02,0c0,0,0,0,0,0t.01,0Z"/>
        <path class="cls-15" d="M397.44,399.02s-.03-.01-.04-.01c0,0,0,0,0,0,.01,0,.03,0,.04.01Z"/>
      </g>
      <path class="cls-12" d="M455.05,436.71c-1.07,3.26-1.7,6.72-2.46,10.06-.77,3.37-1.53,6.74-2.24,10.12-1.43,6.75-2.72,13.53-3.69,20.36-.26,1.85-.5,3.69-.72,5.55-.22,1.86-.67,3.94-.24,5.79.06.27.52.36.64.08.61-1.44.65-3.07.82-4.61.2-1.78.42-3.57.66-5.35.47-3.42,1.02-6.82,1.62-10.22,1.19-6.75,2.62-13.45,4.12-20.14.42-1.87.85-3.73,1.27-5.6.43-1.91.95-3.83,1.23-5.77.09-.65-.79-.93-1.01-.28Z"/>
      <g>
        <path class="cls-12" d="M524.51,632.6c-.07-.19-.16-.36-.25-.53-.14-.26-.29-.51-.45-.77-.25-.41-.54-.8-.83-1.19.17-.14.35-.27.51-.41.26-.22.49-.55.51-.91.02-.48-.43-.81-.87-.72-.12.02-.21.11-.29.21,0,0,0,0,0,0,0-.02,0-.02-.03,0,0,0,0,0,0,.01-.11.05-.2.11-.3.19-.18.14-.35.28-.53.42-.58-.63-1.23-1.21-1.96-1.61-.2-.11-.48-.13-.67,0-.11.08-.19.12-.24.24-.1.2-.14.47,0,.67.34.48.72.93,1.09,1.39.12.15.25.32.37.48-.37.31-.73.62-1.08.95-.2.18-.38.36-.56.56-.09.1-.19.2-.27.32-.08.12-.1.26-.17.38-.15.29.1.64.43.56.13-.04.27-.03.4-.08.17-.06.32-.16.48-.25.27-.15.51-.34.76-.52.3-.21.58-.44.87-.67.21.32.42.63.61.95.14.24.28.48.41.73.12.22.24.43.4.62.04.05.09.11.13.16.44.49,1.48.29,1.58-.42.04-.28.05-.51-.05-.77Z"/>
        <polygon class="cls-12" points="519.1 627.55 519.1 627.55 519.1 627.54 519.1 627.55"/>
      </g>
      <path class="cls-12" d="M546.32,622.73c-.31-.38-.68-.72-1.03-1.07-.18-.18-.36-.35-.54-.53.08-.06.15-.12.23-.18.04-.03.04-.03-.01,0l.06-.04c.09-.07.16-.13.24-.2.26-.23.51-.52.48-.89-.02-.28-.17-.46-.43-.56-.62-.25-1.26.39-1.7.78-.17-.16-.33-.32-.5-.47-.41-.37-.83-.77-1.35-.97-.41-.16-.86.32-.72.72.18.52.57.93.92,1.34.14.17.29.33.44.5-.02.02-.03.03-.05.05-.41.42-.81.84-1.16,1.31-.16.21-.31.41-.44.64-.08.13-.14.27-.18.43-.05.25.04.44.19.63.19.25.64.16.78-.1-.05.1.08-.12.06-.09,0,0,.07-.07.09-.09.09-.08.19-.16.28-.25.18-.17.36-.34.53-.52.29-.3.59-.59.9-.87.19.21.37.42.57.62.28.3.56.6.85.89.06.17.16.33.33.4.23.1.44.16.69.09.17-.05.36-.15.47-.29.33-.41.34-.86,0-1.28Z"/>
    </g>
    <g>
      <path class="cls-9" d="M152.83,534.58c14.39-12.31,26.48-15.01,52.98-6.01,26.5,9,61.87,8.4,62.93,7.8,1.06-.6,34.26-2,34.26-2,0,0,27.71-9.26,38.37-4.41,10.66,4.85-21.52,33.33-23.3,34.12-1.78.79-33.55,16.72-40.01,17.45-6.46.73-12.95,2.18-25.94,2.21-12.99.03-29.76.33-39.48-3.57s-34.65-20.19-38.39-22.24c-3.73-2.05-21.42-23.34-21.42-23.34Z"/>
      <path class="cls-6" d="M220.94,593.96c-2.6-2-5.87-2.31-13.4.2-6,2-26.6,10.8-18.6,24.6,3.6,6.2,28.8-2.4,33.39-6.4,3.67-3.2,2.8-8,1.8-10.4-1-2.4-3.2-8-3.2-8Z"/>
      <path class="cls-16" d="M242.74,583.76c-.55.24-22.06,8.07-25.8,11.8-2.6,2.6.8,13,4.6,12.6,3.8-.4,22.6-6,26.2-6.8,3.6-.8-3.2-18.4-5-17.6Z"/>
      <path class="cls-9" d="M338.72,528.97c24.85,7.91,14.6,38.79,1.8,49.19-12.8,10.4-91.99,27.2-95.19,25.6-3.2-1.6-6.6-17.8-6.2-20,.4-2.2,86.39-58.99,99.58-54.79Z"/>
      <path class="cls-6" d="M280.2,593.96c2.6-2,5.87-2.31,13.4.2,6,2,26.6,10.8,18.6,24.6-3.6,6.2-28.8-2.4-33.39-6.4-3.67-3.2-2.8-8-1.8-10.4,1-2.4,3.2-8,3.2-8Z"/>
      <path class="cls-16" d="M258.41,583.76c.55.24,22.06,8.07,25.8,11.8,2.6,2.6-.8,13-4.6,12.6-3.8-.4-22.6-6-26.2-6.8-3.6-.8,3.2-18.4,5-17.6Z"/>
      <path class="cls-16" d="M333.4,500.47c-.01-12.69-10.01-28.49-10.01-28.49l-21.2,5s6.8,13.8,7.6,18.4c.8,4.6,13.2,8.2,13.2,8.2l10.41-3.11Z"/>
      <path class="cls-16" d="M185.22,465.38s-10.2,19.8-10.8,33.99l15,1.8s13.57-16.13,13.6-17.2c.03-1.07,2-7.2,3.4-10.6s-5.8-3.2-6.8-4.4c-1-1.2-14.4-3.6-14.4-3.6Z"/>
      <path class="cls-4" d="M239.21,420.19c-15.8,1.8-29.6,8.4-35.19,12.6-5.6,4.2-22.2,31.6-22.2,31.6,0,0,12.2,14.2,27.4,13.6,0,0,2,32.79-3.4,50.59,0,0,46.79,28.2,97.18,5.8,0,0-6.62-40.84-4.82-52.83,0,0,18.62-2.16,28.22-8.16,0,0-15.6-36.39-23.8-42.59-8.2-6.2-33.19-10.6-33.19-10.6,0,0-17.8-1-19.2-1s-11,1-11,1Z"/>
      <polygon class="cls-18" points="249.58 425 247.68 436.22 251.1 451.77 257.56 453.21 259.16 433.73 257.7 426.06 249.58 425"/>
      <path class="cls-21" d="M222,447.18s1.01-4.36,2.01-5.04c1.01-.67,24.17,4.45,29.71,7.89,0,0,16.62-8.73,32.07-5.88,0,0,1.34,5.37,1.85,5.71.5.34-16.45,8.56-16.96,8.39-.5-.17-14.1,1.68-18.63,2.01s-30.05-13.09-30.05-13.09Z"/>
      <path class="cls-10" d="M218.31,445.34s5.2,31.9,5.2,44.32c0,0,21.82,1.85,30.89,10.74,0,0,10.24-9.57,30.22-7.39,0,0,1.68-35.42,5.88-44.99,0,0-24.17-3.02-36.43,6.88,0,0-26.69-11.42-35.76-9.57Z"/>
      <path class="cls-16" d="M241.41,407.39l-2.2,12.8s16.8,9.2,30.2,0l-3.2-13.2-24.8.4Z"/>
      <path class="cls-6" d="M236.77,407.44s-9.32-3.47-12.07-11.33c-2.74-7.86-9.69-14.26-8.41-21.21,1.28-6.95,4.57-14.08,4.39-20.11-.18-6.03,4.94-15.54,10.24-18.46,5.3-2.93,13.35-6.58,19.01-2.38,0,0,9.14-4.57,15.91-2.19,6.76,2.38,9.69,6.22,15.72,8.59,6.03,2.38,6.95,6.76,7.5,11.7.55,4.94.37,15.17,1.46,21.21s-3.03,14.31-6.03,17.92c-3,3.61-.91,10.79-12.43,15.36-11.52,4.57-35.28.91-35.28.91Z"/>
      <path class="cls-16" d="M174.42,499.37s41.79-27.4,43.59-29.2,5.6-3.4,9.2-6c3.6-2.6,6.69-3.94,9.6-5.6,2.91-1.66,3.4,1.6,2.4,2.6,0,0,3.4,0,2.8,3,0,0,3.2,1.6,1.2,4.2,0,0,3,1.8-.2,4.6-3.2,2.8-10.8,6.2-13.4,8.2s-28.4,26-37.79,32.39c-8.67,5.91-19-7.8-17.4-14.2Z"/>
      <path class="cls-16" d="M333.4,500.47s-39.45-27.85-41.4-29.49c-1.95-1.63-5.88-2.89-9.7-5.15-3.82-2.27-7.01-3.33-10.06-4.72s-3.24,1.9-2.16,2.8c0,0-3.39.3-2.52,3.24,0,0-3.04,1.88-.82,4.29,0,0-2.83,2.06.61,4.56,3.44,2.5,11.8,3.96,14.57,5.72,2.77,1.76,24.82,28.16,34.75,33.7,9.17,5.11,17.12-8.36,16.73-14.95Z"/>
      <path class="cls-9" d="M162.42,528.97c-24.85,7.91-14.6,38.79-1.8,49.19,12.8,10.4,91.99,27.2,95.19,25.6,3.2-1.6,6.6-17.8,6.2-20-.4-2.2-86.39-58.99-99.58-54.79Z"/>
      <path class="cls-20" d="M241.41,407.39l-1.73,10.09c3.77,1.26,8.28,1.6,11.23,1.61,4.82.01,12.68-1.66,16.93-5.37l-.74-3.03-7.19-3.6-18.5.3Z"/>
      <path class="cls-16" d="M278.64,379.99s6.22-.18,6.22,5.85c0,6.76-6.58,6.76-6.58,6.76,0,0-4.57,24.16-24.13,24.16s-24.86-24.16-24.86-24.16c0,0-6.58,0-6.58-6.76,0-6.03,6.22-5.85,6.22-5.85,0,0,.73-11.31,5.48-13.14s11.26-4.87,13.35-9.14c0,0,4.02,3.29,9.32,4.2,5.3.91,8.04,1.28,10.6,3.66s6.58,13.68,10.97,14.42Z"/>
      <g>
        <path class="cls-20" d="M226.49,381h0s.01,0,.02,0c0,0,0,0,0,0,0,0,0,0,0,0,0,0,0,0,.01-.02-.02,0-.03.01-.04.03Z"/>
        <path class="cls-20" d="M228.05,384.58c-.55-.78-1.49-1.54-2.51-1.42-.33.04-.6.22-.65.58-.04.29.15.68.48.73.13.02.26.04.39.07.06.01.13.03.19.05.03,0,.06.02.09.03,0,0,0,0,0,0,.1.07.22.13.33.2.02.02.04.04.06.05.06.05.11.1.17.16.05.06.1.12.15.18.01.01,0,.01.01.02,0,0,0,0,.02.03.09.13.18.27.25.41.03.05.05.1.08.16-.06,0-.12-.02-.16-.02-.37,0-.66.14-.94.38-.39.33-.66.85-.65,1.37.01.98.94,1.77,1.91,1.69,2.35-.2,1.72-3.34.78-4.65Z"/>
        <polygon class="cls-20" points="226.25 380.93 226.25 380.92 226.25 380.92 226.25 380.93"/>
      </g>
      <path class="cls-20" d="M282.34,383.11c-.15-.34-.49-.49-.85-.42-1.93.37-3.35,2.37-3.6,4.23-.14,1.03.02,2.25.85,2.97.88.76,2.33.77,3.01-.26.34-.51.33-1.22.05-1.76-.14-.26-.37-.5-.63-.64-.15-.08-.31-.13-.47-.16-.11-.02-.23-.03-.34-.04-.13-.02-.08-.02.02.03-.28-.14-.59-.14-.86-.01.08-.58.3-1.12.69-1.66.09-.12,0,0,.09-.11.07-.09.15-.17.23-.25.08-.08.16-.16.25-.24.11-.1.1-.09.17-.14.34-.25.72-.45,1.11-.63.32-.15.43-.6.29-.9Z"/>
      <path class="cls-20" d="M239.01,460.31c-.22.02-.4-.02-.61.05-.22.07-.43.2-.63.32-.44.27-.85.59-1.28.88-.82.58-1.65,1.14-2.47,1.73-.79.57-1.6,1.13-2.37,1.72-.69.53-1.61,1.08-1.88,1.96-.02.06.03.11.08.11.88.05,1.69-.58,2.41-1.03.85-.53,1.68-1.1,2.51-1.67.81-.55,1.6-1.11,2.41-1.66.4-.28.81-.55,1.2-.83.19-.14.38-.28.55-.45.21-.21.24-.38.37-.64.1-.2-.02-.52-.28-.49Z"/>
      <path class="cls-20" d="M241.08,463.45c-.38.09-.72.2-1.07.39-.29.16-.57.35-.86.53-.63.39-1.26.79-1.89,1.19-.61.39-1.21.77-1.81,1.19-.29.2-.58.41-.85.64-.28.23-.46.49-.65.79-.06.1.02.25.14.24.35-.03.65-.07.97-.21.31-.13.61-.29.91-.45.66-.35,1.29-.73,1.93-1.11.62-.37,1.24-.74,1.85-1.11.31-.19.62-.37.92-.57.33-.23.58-.47.84-.78.28-.33.02-.85-.43-.74Z"/>
      <path class="cls-20" d="M241.91,468.27c-.43.21-.83.48-1.24.72-.4.23-.79.46-1.19.69-.46.27-.92.53-1.36.84-.22.15-.46.31-.66.49-.09.08-.18.17-.26.25-.06.06-.1.18-.17.22-.13.08-.05.32.11.26.08-.03.18,0,.26,0,.1,0,.2-.03.3-.04.25-.04.48-.12.72-.2.44-.15.87-.34,1.29-.55.86-.42,1.69-.87,2.52-1.35.39-.22.99-.61.88-1.13-.12-.56-.85-.36-1.21-.19Z"/>
      <path class="cls-16" d="M228.86,457.82c-2.57.38-4.07,2.92-5.41,4.88-.89,1.31-1.78,2.62-2.66,3.94-.85,1.28-1.94,2.57-2.31,4.09-.05.22.19.44.4.31,1.17-.79,1.92-2.07,2.75-3.2.06-.08.12-.17.18-.25.1.14.24.24.41.3.19.07.37.06.54.03-.07.13-.13.26-.2.39-.4.77.66,1.73,1.28.98.04-.05.08-.11.13-.17,0,0,0,0,0,0,0,0,0,0,0-.01,2.52-3.09,4.51-6.58,5.84-10.35.22-.61-.42-1.02-.94-.94ZM227.68,459.94c-.16.38-.3.77-.47,1.14-.25-.12-.56-.13-.8.04.39-.45.81-.86,1.27-1.18Z"/>
      <path class="cls-16" d="M289.67,471.37c-1.06-1.8-2.05-3.64-3.01-5.49-.47-.91-.94-1.82-1.41-2.73-.46-.9-.88-1.87-1.42-2.72-.41-.64-1.01-1.28-1.8-1.4-.86-.13-1.63.4-1.88,1.22-.23.74-.08,1.57.09,2.31.2.87.53,1.71.92,2.51.84,1.73,2.05,3.61,3.58,4.79.37.28.8.11.91-.23.1.07.21.13.32.16.16.22.34.43.52.63.44.69.88,1.37,1.37,2.02.34.45.91.69,1.44.38.49-.29.66-.95.38-1.44Z"/>
      <path class="cls-20" d="M277.73,467.07c-.26-.25-.47-.49-.79-.67-.31-.18-.64-.32-.97-.46-.68-.31-1.37-.6-2.06-.89-.66-.28-1.32-.54-1.99-.8-.66-.26-1.39-.55-2.11-.57-.36-.01-.64.53-.32.77.55.43,1.23.68,1.87.95.66.27,1.32.53,1.97.82.66.28,1.31.58,1.96.88.33.15.66.31,1,.45.35.14.67.17,1.04.22.37.06.73-.38.4-.69Z"/>
      <path class="cls-20" d="M276.18,470.84c-1.23-.8-2.69-1.2-4.04-1.78-1.36-.58-2.66-1.27-4.04-1.79-.53-.2-.76.57-.36.86,1.22.87,2.62,1.49,3.99,2.09.68.3,1.36.59,2.06.86.33.13.67.25,1.01.36.39.12.77.14,1.17.18.44.04.53-.57.21-.78Z"/>
      <path class="cls-20" d="M274.92,474.07c-1.35-.59-2.74-1.09-4.13-1.56-.81-.27-1.62-.52-2.45-.73-.68-.17-1.57-.48-2.16,0-.02.01-.02.04-.02.06.25.63.93.78,1.52,1,.72.27,1.45.5,2.17.75,1.39.47,2.77,1,4.12,1.58.48.2,1.4.73,1.84.2.49-.59-.46-1.12-.89-1.3Z"/>
      <path class="cls-20" d="M205.83,478.47c-.93.27-1.66.82-2.44,1.38-.86.62-1.71,1.26-2.56,1.9-1.62,1.23-3.21,2.49-4.78,3.79-3.17,2.64-6.39,5.35-9.24,8.34-.61.64.31,1.55.97.97,3.07-2.73,6-5.58,9.15-8.21,1.55-1.3,3.12-2.58,4.7-3.84.83-.66,1.66-1.31,2.5-1.95.76-.58,1.5-1.11,2.04-1.91.16-.24-.11-.55-.36-.47Z"/>
      <path class="cls-20" d="M323.1,495.79c-.75-.86-1.53-1.7-2.33-2.52-1.67-1.7-3.45-3.3-5.32-4.78-1.78-1.41-3.66-2.65-5.52-3.95-.89-.62-1.77-1.28-2.57-2.01-.78-.71-1.41-1.67-2.38-2.11-.14-.06-.34,0-.33.19.04,1.02.75,1.75,1.44,2.45.72.72,1.51,1.37,2.32,1.98,1.88,1.43,3.88,2.69,5.73,4.15,1.87,1.48,3.66,3.07,5.33,4.77.84.85,1.65,1.72,2.44,2.62.71.82,1.32,1.9,2.46,2.12.13.02.25-.06.25-.19.06-1.13-.83-1.92-1.52-2.71Z"/>
      <path class="cls-12" d="M314.46,538.37c-1.17-.19-2.03.32-3.06.83-1.1.54-2.2,1.09-3.3,1.64-2.11,1.06-4.21,2.13-6.3,3.22-4.18,2.18-8.33,4.41-12.45,6.71-8.32,4.65-16.5,9.54-24.52,14.69-2.24,1.44-4.47,2.91-6.68,4.39-1.06.71-2.13,1.42-3.18,2.16-.91.64-1.84,1.27-2.52,2.15-11.2-6.85-22.51-13.5-33.82-20.16-6.37-3.75-12.7-7.68-19.28-11.05-.72-.37-1.3.64-.63,1.08,5.29,3.47,10.84,6.57,16.27,9.82,5.44,3.25,10.82,6.59,16.23,9.89,5.41,3.3,10.81,6.6,16.2,9.93,2.74,1.69,5.48,3.38,8.22,5.08,1.09.68,2.2,1.36,3.09,2.3.92.96,1.41,2.17,1.62,3.48.47,2.98-.26,6.25-1.04,9.11-.87,3.18-2.11,6.17-3.54,9.14-.47.98.83,1.74,1.46.85,3.37-4.74,5.28-10.93,5.49-16.73.1-2.75-.5-5.53-2.49-7.54-.98-.99-2.17-1.75-3.35-2.48-1.12-.69-2.25-1.38-3.37-2.07.68-.28,1.31-.67,1.93-1.08,1.03-.67,2.05-1.35,3.08-2.03,1.97-1.3,3.94-2.58,5.93-3.85,3.97-2.54,7.96-5.05,12-7.48,8.07-4.87,16.29-9.5,24.64-13.88,2.36-1.24,4.73-2.46,7.11-3.65,1.19-.6,2.38-1.19,3.58-1.78,1.11-.55,2.32-.94,2.94-2.06.12-.21.03-.57-.25-.62Z"/>
      <path class="cls-8" d="M255.55,494.65c-.01-1.53-.02-3.05-.04-4.58-.02-3-.05-6-.07-8.99-.05-6.1-.16-12.21-.28-18.31-.03-1.69-.09-3.38-.14-5.07,0-.17-.09-3.01-.7-2.66-.89.52-.6,2.3-.62,3.15-.02,1.53-.05,3.05-.05,4.58,0,2.94,0,5.89-.01,8.83,0,5.94.04,11.88.09,17.82.01,1.64.03,3.27.04,4.91,0,.87,0,1.75.02,2.62.02.74.05,1.42.53,2.01.24.3.65.13.83-.11.41-.54.41-1.25.42-1.9,0-.76-.01-1.53-.02-2.29Z"/>
      <path class="cls-1" d="M283.02,445.85c-.56-.21-1.01-.45-1.61-.54-.52-.08-1.05-.1-1.58-.13-1.1-.06-2.2-.07-3.3-.03-2.2.07-4.4.31-6.57.7-2.16.4-4.31.94-6.37,1.7-1.03.38-2.04.79-3.04,1.24-.88.4-1.87.76-2.41,1.61-.03.05.01.1.06.11.97.05,1.85-.48,2.72-.84.97-.4,1.96-.77,2.96-1.09,2.05-.66,4.13-1.23,6.25-1.62,2.12-.39,4.26-.61,6.41-.67,1.05-.03,2.11-.02,3.16.03.53.02,1.05.07,1.58.09.6.02,1.12-.13,1.71-.19.21-.02.26-.3.05-.37Z"/>
      <path class="cls-1" d="M244.36,448.85c-.49-.49-.89-.83-1.54-1.1-.61-.25-1.24-.47-1.86-.68-1.38-.48-2.78-.92-4.19-1.32-1.36-.39-2.75-.7-4.13-1.02-.69-.16-1.38-.34-2.08-.43-.47-.06-.96-.18-1.33.16-.04.04-.04.1-.02.15.23.49.88.59,1.36.72.64.17,1.29.3,1.93.46,1.33.33,2.64.73,3.95,1.13,1.31.4,2.61.82,3.9,1.28.62.22,1.24.46,1.86.68.71.25,1.26.31,2.02.29.15,0,.24-.19.13-.31Z"/>
      <path class="cls-1" d="M250.11,450.27c-.13-.11-.28-.19-.43-.26-.33-.15-.67-.26-1.01-.36-.34-.1-.68-.18-1.03-.22-.09-.01-.18-.03-.27-.03-.08,0-.13.02-.2.03-.05,0-.12-.01-.18,0-.1,0-.18,0-.28-.01-.06-.01-.1.07-.04.1.1.05.17.08.24.16.06.06.13.1.2.14.06.08.14.13.25.19.12.07.24.14.37.2.29.14.59.25.89.36.29.11.59.2.89.25.15.03.31.04.47.02.13-.01.28.02.39-.06.05-.03.08-.09.06-.16-.05-.15-.19-.23-.31-.33Z"/>
      <path class="cls-17" d="M245.82,346.76c-.06-.17-.27-.16-.34,0-.37.95-.83,1.84-1.21,2.79-.38.95-.86,1.83-1.46,2.66-1.24,1.72-2.93,3.08-4.76,4.12-1.89,1.07-4.04,1.65-5.88,2.84-.94.61-1.74,1.37-2.36,2.3-.64.98-1.05,2.08-1.61,3.09-.6,1.08-1.46,1.99-2.49,2.68-1.07.71-2.24,1.01-3.45,1.39-.52.16-.38.84.12.9,2.14.25,4.48-1.05,5.91-2.55,1.73-1.8,2.15-4.52,4.16-6.07,1.87-1.44,4.27-1.98,6.32-3.11,1.99-1.1,3.85-2.56,5.26-4.35.75-.95,1.35-1.99,1.79-3.12.47-1.2.39-2.38-.03-3.58Z"/>
      <path class="cls-17" d="M243.2,337.99c-.71,1.38-1.66,2.55-2.24,4-.53,1.34-.97,2.72-1.65,4-1.19,2.21-3.04,3.54-5.24,4.63-2.01.99-4.15,1.79-5.94,3.16-.9.69-1.67,1.51-2.26,2.47-.61.99-1.39,2.39-1.24,3.59,0,.05.05.07.09.05,1.13-.53,1.6-2.02,2.23-3.01.66-1.03,1.52-1.85,2.54-2.51,1.94-1.26,4.15-1.96,6.21-2.97,2.19-1.07,3.99-2.49,5.16-4.66.66-1.22,1.15-2.53,1.62-3.84.57-1.58.64-3.17,1.03-4.78.04-.18-.22-.31-.31-.13Z"/>
      <path class="cls-17" d="M286.67,365.98c-.67.25-1.32.08-2.01.08-.67,0-1.33.07-1.99,0-1.32-.15-2.58-.69-3.68-1.41-2.44-1.61-4.18-4.08-6.16-6.19-1.84-1.96-4-3.81-6.63-4.56-2.8-.8-5.77-.18-8.45-1.52-2.68-1.34-4.43-3.62-5.54-6.35-.26-.65-1.19-.41-1.05.29.48,2.58,2.29,4.86,4.36,6.39,1.06.78,2.25,1.36,3.5,1.77,1.56.5,3.17.5,4.79.66,6.7.66,9.16,7.97,14.3,11.29,1.37.88,2.94,1.45,4.56,1.62.81.08,1.7.08,2.46-.25.72-.31,1.19-.94,1.75-1.46.15-.14,0-.42-.2-.35Z"/>
      <path class="cls-17" d="M285.94,357.46c-.13-.26-.5-.12-.51.14-.03.67-1.1.74-1.56.7-.7-.06-1.39-.27-2.05-.5-1.24-.43-2.44-1.06-3.46-1.88-1.9-1.54-3.11-3.69-4.68-5.53-1.68-1.96-3.8-3.09-6.35-3.47-2.55-.37-5.21-.28-7.52-1.59-1.2-.68-2.26-1.63-3.07-2.76-.81-1.14-1.27-2.4-1.8-3.68-.15-.37-.72-.35-.73.1-.1,2.59,1.74,5.15,3.68,6.7,1.05.84,2.24,1.49,3.54,1.87,1.45.43,3,.51,4.5.66,1.54.16,3.1.41,4.44,1.24,1.19.74,2.12,1.93,2.93,3.05,1.72,2.36,3.33,4.64,5.92,6.13,1.35.78,3.08,1.51,4.66,1.53,1.55.02,2.84-1.19,2.08-2.72Z"/>
      <path class="cls-17" d="M286.74,351.04c-1.06-.71-2.47-.63-3.67-.93-1.26-.31-2.43-.84-3.49-1.58-2.07-1.43-3.24-3.7-5.13-5.32-.96-.82-2.05-1.39-3.31-1.63-1.4-.26-2.86-.12-4.23-.55-1.23-.39-2.28-1.2-3.19-2.09-.71-.7-1.47-2.12-2.55-2.21-.06,0-.13.05-.14.1-.14.87.63,1.6,1.15,2.22.65.77,1.37,1.49,2.18,2.1.81.61,1.72,1.08,2.7,1.33,1.2.31,2.46.32,3.67.56,2.19.43,3.51,2.09,4.83,3.75,1.33,1.67,2.74,3.18,4.68,4.13,1.72.84,4.92,2.07,6.54.47.11-.11.07-.27-.04-.35Z"/>
      <path class="cls-17" d="M239.28,337.46c-.05-.07-.15-.14-.24-.1-.55.22-.92.94-1.18,1.44-.32.61-.65,1.21-1.05,1.77-.82,1.12-1.95,2.15-3.18,2.8-1.46.78-2.98,1.23-4.17,2.45-.51.53-.99,1.13-1.34,1.77-.16.29-.36.66-.4.99-.02.13.02.49.21.52.65.1,1.04-.69,1.38-1.15.47-.63.98-1.26,1.6-1.75,1.24-.99,2.86-1.36,4.22-2.15,1.22-.71,2.25-1.73,3.08-2.87.41-.56.77-1.16,1.03-1.81.13-.32.22-.64.22-.99,0-.28,0-.7-.18-.93Z"/>
      <path class="cls-17" d="M270.63,419.71c-.86-.63-1.92.4-2.6.82-3.71,2.31-8.13,3.35-12.48,3.29-2.77-.04-5.47-.44-8.14-1.14-1.28-.33-2.53-.74-3.78-1.15-.67-.22-1.34-.46-2.01-.7-.49-.18-1.31-.37-1.63-.83-.37-.54-1.12-.19-1.02.43.16.98.89,1.38,1.74,1.75,1.08.47,2.2.91,3.32,1.3,2.3.79,4.66,1.41,7.06,1.8,4.45.72,9.04.66,13.35-.75,1.99-.65,4.16-1.55,5.78-2.91.5-.42,1.12-1.38.4-1.91Z"/>
      <path class="cls-17" d="M216.28,453.73s-.04.06-.06.1c-.07.09-.13.18-.19.27-.08.09-.18.16-.29.23-.06.04-.03.12.04.12-.7,1.11-1.14,2.44-1.57,3.65-.59,1.65-1.1,3.34-1.49,5.05-.38,1.68-.63,3.37-.92,5.07-.15.9-.32,1.79-.53,2.68-.1.39-.2.78-.26,1.18-.08.47,0,.73.1,1.18.07.32.46.36.67.18.64-.55.88-1.12,1.08-1.95.21-.83.37-1.68.52-2.52.3-1.69.54-3.39.9-5.07.35-1.62.77-3.22,1.27-4.79.52-1.63,1.42-3.27,1.66-4.97.07-.52-.63-.95-.92-.39Z"/>
      <path class="cls-17" d="M299.72,472.11l-1.09-2.73c-.75-1.87-1.5-3.74-2.27-5.61-.73-1.78-1.46-3.56-2.24-5.32-.39-.89-.79-1.79-1.2-2.67-.29-.61-1.06-1.71-.76-2.4.03-.07-.05-.16-.12-.09-.5.51-.72.93-.67,1.66.07.93.5,1.86.81,2.73.7,2,1.46,3.98,2.22,5.96.77,1.98,1.55,3.95,2.34,5.92.4,1.01.81,2.02,1.21,3.03.33.84.57,1.96,1.44,2.39.36.18.73.02.86-.35.32-.86-.21-1.73-.53-2.52Z"/>
      <path class="cls-6" d="M247.02,374.39c.11.09-.06-.06-.09-.09-.08-.07-.15-.13-.23-.2-.18-.15-.37-.3-.56-.44-.36-.25-.76-.44-1.17-.6-.8-.32-1.72-.44-2.57-.33-.8.11-1.58.38-2.27.82-.77.49-1.53,1.16-1.65,2.11-.04.31.2.64.45.79.31.18.61.13.92,0,.36-.15.54-.39.81-.63.06-.05.11-.1.17-.15-.07.05-.05.04.05-.04.12-.09.25-.17.38-.24.46-.26.92-.38,1.4-.41.16,0,.32-.01.48,0,.08,0,.16,0,.24.02.02,0,.02,0,.06,0,.16.03.31.07.47.11.04.01.43.15.29.09.66.27.89.57,1.43.99.54.42,1.26.48,1.72-.12.46-.59.22-1.27-.32-1.69Z"/>
      <path class="cls-6" d="M245.24,385.88c.01-.22.02-.44,0-.66-.05-.61-.14-1.31-.51-1.83-.5-.69-1.48-1-2.3-.57-.61.32-.92.94-1.06,1.54-.15.65-.22,1.32-.2,1.98.02.64.1,1.27.42,1.84.32.57.95,1.03,1.68,1.05.9.02,1.55-.57,1.81-1.3.18-.5.19-1.08.19-1.6,0-.15-.02-.3-.03-.45Z"/>
      <path class="cls-6" d="M268.82,375.01c.11.09-.06-.06-.09-.09-.08-.07-.15-.13-.23-.2-.18-.15-.37-.3-.56-.44-.36-.25-.76-.44-1.17-.6-.8-.32-1.72-.44-2.57-.33-.8.11-1.58.38-2.27.82-.77.49-1.53,1.16-1.65,2.11-.04.31.2.64.45.79.31.18.61.13.92,0,.36-.15.54-.39.81-.63.06-.05.11-.1.17-.15-.07.05-.05.04.05-.04.12-.09.25-.17.38-.24.46-.26.92-.38,1.4-.41.16,0,.32-.01.48,0,.08,0,.16,0,.24.02.02,0,.02,0,.06,0,.16.03.31.07.47.11.04.01.43.15.29.09.66.27.89.57,1.43.99.54.42,1.26.48,1.72-.12.46-.59.22-1.27-.32-1.69Z"/>
      <path class="cls-6" d="M267.04,386.51c.01-.22.02-.44,0-.66-.05-.61-.14-1.31-.51-1.83-.5-.69-1.48-1-2.3-.57-.61.32-.92.94-1.06,1.54-.15.65-.22,1.32-.2,1.98.02.64.1,1.27.42,1.84.32.57.95,1.03,1.68,1.05.9.02,1.55-.57,1.81-1.3.18-.5.19-1.08.19-1.6,0-.15-.02-.3-.03-.45Z"/>
      <path class="cls-20" d="M256.42,394.75c-.34.14-.53.35-.79.59-.04.04-.09.07-.13.11,0,0,0,0-.02.01-.1.06-.19.13-.3.19-.09.05-.19.09-.28.14,0,0,0,0,0,0,0,0,0,0-.02,0-.06.02-.11.04-.17.06-.22.07-.45.12-.68.16-.04,0-.2.02-.03,0-.05,0-.09,0-.14.01-.12,0-.23.01-.35.01-.12,0-.23-.01-.35-.02-.02,0-.02,0-.03,0,0,0,0,0-.01,0-.06,0-.11-.02-.17-.03-.23-.04-.45-.1-.67-.18-.07-.03-.16-.07-.29-.11-.13-.04-.31-.03-.43-.07-.34-.13-.69.33-.48.63.05.07.06.16.11.23.05.07.12.16.17.22.11.12.24.21.37.29.25.15.52.28.79.37.53.18,1.13.25,1.69.22.62-.04,1.2-.2,1.77-.46.55-.25,1.33-.73,1.48-1.36.13-.56-.4-1.28-1.03-1.03Z"/>
      <path class="cls-20" d="M257.11,402.36c-.25-.2-.53-.23-.84-.17-.15.03-.29.09-.43.16-.03.01-.17.11-.23.12-.04.02-.08.03-.12.05-.1.04-.19.07-.29.1-.2.06-.4.1-.6.14-.04,0-.08,0-.11.01-.09,0-.18.02-.27.02-.19.02-.39.02-.58,0-.08,0-.15-.01-.23-.02-.01,0-.19-.03-.22-.04-.43-.09-.86-.28-1.29-.31-.52-.04-.82.59-.58,1.01.29.51.92.81,1.44,1.02.5.2,1.04.31,1.58.35.52.04,1.09-.05,1.59-.2.29-.08.59-.2.85-.36.45-.27.66-.65.73-1.16.04-.29-.16-.59-.38-.75Z"/>
      <path class="cls-17" d="M286.04,380.13c-1.2-.82-2.97-.27-4.33-.37-1.57-.12-3.11-.65-4.29-1.72-2.22-2.01-3.2-5.08-4.59-7.65-1.39-2.56-3.07-5.07-5.38-6.89-2.55-2.01-5.48-2.57-8.64-2.82-1.86-.15-3.78-.2-5.55-.86-1.82-.67-3.07-1.96-4.23-3.44,0-.31-.15-.49-.14-.89,0-.18-.24-.28-.37-.15-.18.19-.4.17-.6.31-.21.15-.35.43-.48.64-.36.61-.68,1.23-1.09,1.81-.75,1.06-1.65,2.02-2.65,2.85-2.16,1.78-4.82,2.79-7.28,4.04-2.22,1.13-4.35,2.53-5.84,4.56-.68.92-1.2,1.98-1.45,3.1-.31,1.4-.16,2.87-.55,4.26-.68,2.44-3.51,3.63-5.82,2.89-.6-.19-1.03.78-.44,1.04,2.05.9,4.4.41,6.08-1.02.88-.75,1.51-1.78,1.77-2.91.33-1.42.17-2.9.59-4.3.77-2.52,3.01-4.32,5.21-5.58,2.62-1.49,5.51-2.48,7.96-4.26,1.26-.91,2.37-1.99,3.32-3.22.46-.59.88-1.22,1.25-1.87.01-.02.03-.05.04-.07,1.46,2.48,4.39,3.87,7.15,4.32,3.39.55,6.91.3,9.91,2.24,2.66,1.73,4.45,4.53,5.91,7.29,1.43,2.72,2.49,5.9,4.89,7.96,1.37,1.17,3.02,1.81,4.8,2.02,1.5.18,3.96.4,4.93-1.02.07-.1.01-.23-.08-.29Z"/>
    </g>
    <polygon class="cls-5" points="225.99 422.06 233.91 414.17 249.58 425.48 248.11 433.15 225.99 422.06"/>
    <polygon class="cls-5" points="281.19 422.06 273.28 414.17 257.61 425.48 259.07 433.15 281.19 422.06"/>
    <polygon class="cls-5" points="366.74 418.05 374.65 410.17 391.09 427.56 387.11 435.38 366.74 418.05"/>
    <polygon class="cls-5" points="414.8 425.08 406.89 417.19 396.62 427.43 399.82 435.64 414.8 425.08"/>
    <polygon class="cls-18" points="391.09 427.56 386.99 436.51 391.09 447.83 396.64 447.83 399.82 435.64 396.62 427.43 391.09 427.56"/>
    <path class="cls-18" d="M386.99,473.48l4.1-25.65h5.56l1.76,17.83s-8.19,6.17-11.41,7.82Z"/>
    <rect class="cls-11" x="391.09" y="447.18" width="5.53" height=".65"/>
  </g>
</svg>